<?xml version="1.0" encoding="UTF-8" standalone="no"?><svg xmlns="http://www.w3.org/2000/svg" xmlns:xlink="http://www.w3.org/1999/xlink" contentScriptType="application/ecmascript" contentStyleType="text/css" height="218px" preserveAspectRatio="none" style="width:415px;height:218px;" version="1.1" viewBox="0 0 415 218" width="415px" zoomAndPan="magnify"><defs><filter height="300%" id="f1pet86xx7ehgk" width="300%" x="-1" y="-1"><feGaussianBlur result="blurOut" stdDeviation="2.0"/><feColorMatrix in="blurOut" result="blurOut2" type="matrix" values="0 0 0 0 0 0 0 0 0 0 0 0 0 0 0 0 0 0 .4 0"/><feOffset dx="4.0" dy="4.0" in="blurOut2" result="blurOut3"/><feBlend in="SourceGraphic" in2="blurOut3" mode="normal"/></filter></defs><g><!--MD5=[7b499366c99427e5c04f51cc2c51d9ac]
cluster MS SQL--><polygon fill="#FFFFFF" filter="url(#f1pet86xx7ehgk)" points="151,24,211,24,218,47.6094,294,47.6094,294,206,151,206,151,24" style="stroke: #000000; stroke-width: 1.5;"/><line style="stroke: #000000; stroke-width: 1.5;" x1="151" x2="218" y1="47.6094" y2="47.6094"/><text fill="#000000" font-family="sans-serif" font-size="14" font-weight="bold" lengthAdjust="spacingAndGlyphs" textLength="54" x="155" y="40.5332">MS SQL</text><!--MD5=[ae38f3df50bbf8acf027574e6a8bac37]
entity repo--><path d="M167,70.5 C167,60.5 222.5,60.5 222.5,60.5 C222.5,60.5 278,60.5 278,70.5 L278,97.1094 C278,107.1094 222.5,107.1094 222.5,107.1094 C222.5,107.1094 167,107.1094 167,97.1094 L167,70.5 " fill="#FEFECE" filter="url(#f1pet86xx7ehgk)" style="stroke: #000000; stroke-width: 1.5;"/><path d="M167,70.5 C167,80.5 222.5,80.5 222.5,80.5 C222.5,80.5 278,80.5 278,70.5 " fill="none" style="stroke: #000000; stroke-width: 1.5;"/><text fill="#000000" font-family="sans-serif" font-size="14" lengthAdjust="spacingAndGlyphs" textLength="91" x="177" y="99.0332">Repository DB</text><!--MD5=[30a3ef9bb7efc653dbcdad31fdc20f2b]
entity dwh--><path d="M185,152.5 C185,142.5 222.5,142.5 222.5,142.5 C222.5,142.5 260,142.5 260,152.5 L260,179.1094 C260,189.1094 222.5,189.1094 222.5,189.1094 C222.5,189.1094 185,189.1094 185,179.1094 L185,152.5 " fill="#FEFECE" filter="url(#f1pet86xx7ehgk)" style="stroke: #000000; stroke-width: 1.5;"/><path d="M185,152.5 C185,162.5 222.5,162.5 222.5,162.5 C222.5,162.5 260,162.5 260,152.5 " fill="none" style="stroke: #000000; stroke-width: 1.5;"/><text fill="#000000" font-family="sans-serif" font-size="14" lengthAdjust="spacingAndGlyphs" textLength="55" x="195" y="181.0332">DWH DB</text><!--MD5=[d7921d330aad3a18116a1335157c38d4]
entity dwh_dev--><ellipse cx="56.5" cy="92.5" fill="#FEFECE" filter="url(#f1pet86xx7ehgk)" rx="8" ry="8" style="stroke: #A80036; stroke-width: 2.0;"/><path d="M56.5,100.5 L56.5,127.5 M43.5,108.5 L69.5,108.5 M56.5,127.5 L43.5,142.5 M56.5,127.5 L69.5,142.5 " fill="none" filter="url(#f1pet86xx7ehgk)" style="stroke: #A80036; stroke-width: 2.0;"/><text fill="#000000" font-family="sans-serif" font-size="14" lengthAdjust="spacingAndGlyphs" textLength="101" x="6" y="164.0332">DWH Developer</text><!--MD5=[022a95cf34efe2afdf78f4bedec9ea88]
entity dwh_user--><ellipse cx="370.5" cy="133.5" fill="#FEFECE" filter="url(#f1pet86xx7ehgk)" rx="8" ry="8" style="stroke: #A80036; stroke-width: 2.0;"/><path d="M370.5,141.5 L370.5,168.5 M357.5,149.5 L383.5,149.5 M370.5,168.5 L357.5,183.5 M370.5,168.5 L383.5,183.5 " fill="none" filter="url(#f1pet86xx7ehgk)" style="stroke: #A80036; stroke-width: 2.0;"/><text fill="#000000" font-family="sans-serif" font-size="14" lengthAdjust="spacingAndGlyphs" textLength="65" x="338" y="205.0332">DWH User</text><!--MD5=[d34e09ecf7018b44f36f8ad07d550d6d]
link dwh_dev to repo--><path d="M107.15,112.59 C124.39,108.28 143.89,103.4 161.85,98.91 " fill="none" id="dwh_dev-&gt;repo" style="stroke: #A80036; stroke-width: 1.0;"/><polygon fill="#A80036" points="166.87,97.66,157.1686,95.9623,162.0193,98.8727,159.1089,103.7234,166.87,97.66" style="stroke: #A80036; stroke-width: 1.0;"/><!--MD5=[c54261054a1da3c8619220840959c41f]
link dwh_dev to dwh--><path d="M107.15,137.41 C130.38,143.22 157.73,150.06 179.86,155.59 " fill="none" id="dwh_dev-&gt;dwh" style="stroke: #A80036; stroke-width: 1.0;"/><polygon fill="#A80036" points="184.78,156.82,177.0189,150.7566,179.9293,155.6073,175.0786,158.5177,184.78,156.82" style="stroke: #A80036; stroke-width: 1.0;"/><!--MD5=[4875139fe9f0511a11f60472942c405f]
reverse link dwh to dwh_user--><path d="M265.46,166 C288.44,166 316.46,166 337.63,166 " fill="none" id="dwh&lt;-dwh_user" style="stroke: #A80036; stroke-width: 1.0;"/><polygon fill="#A80036" points="260.34,166,269.34,170,265.34,166,269.34,162,260.34,166" style="stroke: #A80036; stroke-width: 1.0;"/><!--MD5=[9f1e5b28c3cc3ba3bc300d98299be233]
@startuml
left to right direction

actor "DWH Developer" as dwh_dev
actor "DWH User" as dwh_user

package "MS SQL" {
  database "Repository DB" as repo
  database  "DWH DB" as dwh
}

dwh_dev - -> repo
dwh_dev - -> dwh
dwh <- - dwh_user
@enduml

PlantUML version 1.2019.12(Sun Nov 03 11:24:54 CET 2019)
(APACHE source distribution)
Java Runtime: Java(TM) SE Runtime Environment
JVM: Java HotSpot(TM) 64-Bit Server VM
Java Version: 1.8.0_281-b09
Operating System: Windows 10
Default Encoding: Cp1252
Language: de
Country: DE
--></g></svg>