<?xml version="1.0" encoding="UTF-8" standalone="no"?><svg xmlns="http://www.w3.org/2000/svg" xmlns:xlink="http://www.w3.org/1999/xlink" contentScriptType="application/ecmascript" contentStyleType="text/css" height="599px" preserveAspectRatio="none" style="width:1088px;height:599px;" version="1.1" viewBox="0 0 1088 599" width="1088px" zoomAndPan="magnify"><defs><filter height="300%" id="f18kbyfghkxr2z" width="300%" x="-1" y="-1"><feGaussianBlur result="blurOut" stdDeviation="2.0"/><feColorMatrix in="blurOut" result="blurOut2" type="matrix" values="0 0 0 0 0 0 0 0 0 0 0 0 0 0 0 0 0 0 .4 0"/><feOffset dx="4.0" dy="4.0" in="blurOut2" result="blurOut3"/><feBlend in="SourceGraphic" in2="blurOut3" mode="normal"/></filter></defs><g><!--MD5=[61f8c2d2626b9b5131970eb36e91dbd2]
cluster repo_db--><path d="M85.5,34 C85.5,24 581,24 581,24 C581,24 1076.5,24 1076.5,34 L1076.5,412 C1076.5,422 581,422 581,422 C581,422 85.5,422 85.5,412 L85.5,34 " fill="#FFFFFF" filter="url(#f18kbyfghkxr2z)" style="stroke: #000000; stroke-width: 1.5;"/><path d="M85.5,34 C85.5,44 581,44 581,44 C581,44 1076.5,44 1076.5,34 " fill="none" style="stroke: #000000; stroke-width: 1.5;"/><text fill="#000000" font-family="sans-serif" font-size="14" font-weight="bold" lengthAdjust="spacingAndGlyphs" textLength="100" x="531" y="60.5332">Repository DB</text><!--MD5=[915f6a2b4bff9d90dc7327d570275f1b]
cluster Configuration--><polygon fill="#FFFFFF" filter="url(#f18kbyfghkxr2z)" points="773.5,83,875.5,83,882.5,106.6094,1052.5,106.6094,1052.5,183,773.5,183,773.5,83" style="stroke: #000000; stroke-width: 1.5;"/><line style="stroke: #000000; stroke-width: 1.5;" x1="773.5" x2="882.5" y1="106.6094" y2="106.6094"/><text fill="#000000" font-family="sans-serif" font-size="14" font-weight="bold" lengthAdjust="spacingAndGlyphs" textLength="96" x="777.5" y="99.5332">Configuration</text><!--MD5=[1255576386da393afe40389d707dec7a]
cluster Generators--><polygon fill="#FFFFFF" filter="url(#f18kbyfghkxr2z)" points="109.5,83,195.5,83,202.5,106.6094,625.5,106.6094,625.5,294,109.5,294,109.5,83" style="stroke: #000000; stroke-width: 1.5;"/><line style="stroke: #000000; stroke-width: 1.5;" x1="109.5" x2="202.5" y1="106.6094" y2="106.6094"/><text fill="#000000" font-family="sans-serif" font-size="14" font-weight="bold" lengthAdjust="spacingAndGlyphs" textLength="80" x="113.5" y="99.5332">Generators</text><!--MD5=[5dd350d9ae29b08b992c73cba4760ef7]
cluster dwh_db--><path d="M613.5,482 C613.5,472 844,472 844,472 C844,472 1074.5,472 1074.5,482 L1074.5,577 C1074.5,587 844,587 844,587 C844,587 613.5,587 613.5,577 L613.5,482 " fill="#FFFFFF" filter="url(#f18kbyfghkxr2z)" style="stroke: #000000; stroke-width: 1.5;"/><path d="M613.5,482 C613.5,492 844,492 844,492 C844,492 1074.5,492 1074.5,482 " fill="none" style="stroke: #000000; stroke-width: 1.5;"/><text fill="#000000" font-family="sans-serif" font-size="14" font-weight="bold" lengthAdjust="spacingAndGlyphs" textLength="57" x="815.5" y="508.5332">DWH DB</text><!--MD5=[df10bab982beca737304a4fe303f57ee]
entity RepoObject--><rect fill="#FEFECE" filter="url(#f18kbyfghkxr2z)" height="47.6094" style="stroke: #A80036; stroke-width: 1.5;" width="115" x="644" y="358"/><rect fill="#FEFECE" height="10" style="stroke: #A80036; stroke-width: 1.5;" width="15" x="739" y="363"/><rect fill="#FEFECE" height="2" style="stroke: #A80036; stroke-width: 1.5;" width="4" x="737" y="365"/><rect fill="#FEFECE" height="2" style="stroke: #A80036; stroke-width: 1.5;" width="4" x="737" y="369"/><text fill="#000000" font-family="sans-serif" font-size="14" lengthAdjust="spacingAndGlyphs" textLength="75" x="659" y="392.5332">RepoObject</text><!--MD5=[3bf34f8778dc588c7601fb9b37ebe9d2]
entity SqlParser--><rect fill="#FEFECE" filter="url(#f18kbyfghkxr2z)" height="47.6094" style="stroke: #A80036; stroke-width: 1.5;" width="114" x="274.5" y="358"/><rect fill="#FEFECE" height="10" style="stroke: #A80036; stroke-width: 1.5;" width="15" x="368.5" y="363"/><rect fill="#FEFECE" height="2" style="stroke: #A80036; stroke-width: 1.5;" width="4" x="366.5" y="365"/><rect fill="#FEFECE" height="2" style="stroke: #A80036; stroke-width: 1.5;" width="4" x="366.5" y="369"/><text fill="#000000" font-family="sans-serif" font-size="14" lengthAdjust="spacingAndGlyphs" textLength="74" x="289.5" y="392.5332">SQL Parser</text><!--MD5=[edb52b69f2c8f3eb2bc097baf5e97c82]
entity Reference--><rect fill="#FEFECE" filter="url(#f18kbyfghkxr2z)" height="47.6094" style="stroke: #A80036; stroke-width: 1.5;" width="106" x="641.5" y="230"/><rect fill="#FEFECE" height="10" style="stroke: #A80036; stroke-width: 1.5;" width="15" x="727.5" y="235"/><rect fill="#FEFECE" height="2" style="stroke: #A80036; stroke-width: 1.5;" width="4" x="725.5" y="237"/><rect fill="#FEFECE" height="2" style="stroke: #A80036; stroke-width: 1.5;" width="4" x="725.5" y="241"/><text fill="#000000" font-family="sans-serif" font-size="14" lengthAdjust="spacingAndGlyphs" textLength="66" x="656.5" y="264.5332">Reference</text><!--MD5=[c250bed99d926f325f6dc96c0b6ad1d1]
entity Inheritance--><rect fill="#FEFECE" filter="url(#f18kbyfghkxr2z)" height="47.6094" style="stroke: #A80036; stroke-width: 1.5;" width="110" x="644.5" y="119"/><rect fill="#FEFECE" height="10" style="stroke: #A80036; stroke-width: 1.5;" width="15" x="734.5" y="124"/><rect fill="#FEFECE" height="2" style="stroke: #A80036; stroke-width: 1.5;" width="4" x="732.5" y="126"/><rect fill="#FEFECE" height="2" style="stroke: #A80036; stroke-width: 1.5;" width="4" x="732.5" y="130"/><text fill="#000000" font-family="sans-serif" font-size="14" lengthAdjust="spacingAndGlyphs" textLength="70" x="659.5" y="153.5332">Inheritance</text><!--MD5=[107be3a8b78ef5693385c4c56f63e71a]
entity Synonyms--><rect fill="#FEFECE" filter="url(#f18kbyfghkxr2z)" height="47.6094" style="stroke: #A80036; stroke-width: 1.5;" width="105" x="931" y="119"/><rect fill="#FEFECE" height="10" style="stroke: #A80036; stroke-width: 1.5;" width="15" x="1016" y="124"/><rect fill="#FEFECE" height="2" style="stroke: #A80036; stroke-width: 1.5;" width="4" x="1014" y="126"/><rect fill="#FEFECE" height="2" style="stroke: #A80036; stroke-width: 1.5;" width="4" x="1014" y="130"/><text fill="#000000" font-family="sans-serif" font-size="14" lengthAdjust="spacingAndGlyphs" textLength="65" x="946" y="153.5332">Synonyms</text><!--MD5=[9d7685ab4c2fb93380d9e0dea20b1da5]
entity Parameter--><rect fill="#FEFECE" filter="url(#f18kbyfghkxr2z)" height="47.6094" style="stroke: #A80036; stroke-width: 1.5;" width="106" x="789.5" y="119"/><rect fill="#FEFECE" height="10" style="stroke: #A80036; stroke-width: 1.5;" width="15" x="875.5" y="124"/><rect fill="#FEFECE" height="2" style="stroke: #A80036; stroke-width: 1.5;" width="4" x="873.5" y="126"/><rect fill="#FEFECE" height="2" style="stroke: #A80036; stroke-width: 1.5;" width="4" x="873.5" y="130"/><text fill="#000000" font-family="sans-serif" font-size="14" lengthAdjust="spacingAndGlyphs" textLength="66" x="804.5" y="153.5332">Parameter</text><!--MD5=[370712cad9ba1b9c28640b24e089c401]
entity GeneratorUsp--><rect fill="#FEFECE" filter="url(#f18kbyfghkxr2z)" height="47.6094" style="stroke: #A80036; stroke-width: 1.5;" width="220" x="356.5" y="230"/><rect fill="#FEFECE" height="10" style="stroke: #A80036; stroke-width: 1.5;" width="15" x="556.5" y="235"/><rect fill="#FEFECE" height="2" style="stroke: #A80036; stroke-width: 1.5;" width="4" x="554.5" y="237"/><rect fill="#FEFECE" height="2" style="stroke: #A80036; stroke-width: 1.5;" width="4" x="554.5" y="241"/><text fill="#000000" font-family="sans-serif" font-size="14" lengthAdjust="spacingAndGlyphs" textLength="180" x="371.5" y="264.5332">USP generator (Procedures)</text><!--MD5=[ddcafc3e62c978283cbf362f28f1b5d1]
entity GeneratorPersistence--><rect fill="#FEFECE" filter="url(#f18kbyfghkxr2z)" height="47.6094" style="stroke: #A80036; stroke-width: 1.5;" width="180" x="296.5" y="119"/><rect fill="#FEFECE" height="10" style="stroke: #A80036; stroke-width: 1.5;" width="15" x="456.5" y="124"/><rect fill="#FEFECE" height="2" style="stroke: #A80036; stroke-width: 1.5;" width="4" x="454.5" y="126"/><rect fill="#FEFECE" height="2" style="stroke: #A80036; stroke-width: 1.5;" width="4" x="454.5" y="130"/><text fill="#000000" font-family="sans-serif" font-size="14" lengthAdjust="spacingAndGlyphs" textLength="140" x="311.5" y="153.5332">Persistence generator</text><!--MD5=[da6244009a9eac8b65ec0388ed65c40c]
entity GeneratorView--><rect fill="#FEFECE" filter="url(#f18kbyfghkxr2z)" height="47.6094" style="stroke: #A80036; stroke-width: 1.5;" width="135" x="126" y="119"/><rect fill="#FEFECE" height="10" style="stroke: #A80036; stroke-width: 1.5;" width="15" x="241" y="124"/><rect fill="#FEFECE" height="2" style="stroke: #A80036; stroke-width: 1.5;" width="4" x="239" y="126"/><rect fill="#FEFECE" height="2" style="stroke: #A80036; stroke-width: 1.5;" width="4" x="239" y="130"/><text fill="#000000" font-family="sans-serif" font-size="14" lengthAdjust="spacingAndGlyphs" textLength="95" x="141" y="153.5332">View generator</text><!--MD5=[3d98c10aaffad8527997a6440f7568c6]
entity Workflow--><rect fill="#FEFECE" filter="url(#f18kbyfghkxr2z)" height="47.6094" style="stroke: #A80036; stroke-width: 1.5;" width="97" x="512" y="119"/><rect fill="#FEFECE" height="10" style="stroke: #A80036; stroke-width: 1.5;" width="15" x="589" y="124"/><rect fill="#FEFECE" height="2" style="stroke: #A80036; stroke-width: 1.5;" width="4" x="587" y="126"/><rect fill="#FEFECE" height="2" style="stroke: #A80036; stroke-width: 1.5;" width="4" x="587" y="130"/><text fill="#000000" font-family="sans-serif" font-size="14" lengthAdjust="spacingAndGlyphs" textLength="57" x="527" y="153.5332">Workflow</text><!--MD5=[274b4989e7a418ce5213e9232dc0a52b]
entity dwh_sys--><rect fill="#FEFECE" filter="url(#f18kbyfghkxr2z)" height="47.6094" style="stroke: #A80036; stroke-width: 1.5;" width="228" x="830.5" y="523"/><rect fill="#FEFECE" height="10" style="stroke: #A80036; stroke-width: 1.5;" width="15" x="1038.5" y="528"/><rect fill="#FEFECE" height="2" style="stroke: #A80036; stroke-width: 1.5;" width="4" x="1036.5" y="530"/><rect fill="#FEFECE" height="2" style="stroke: #A80036; stroke-width: 1.5;" width="4" x="1036.5" y="534"/><text fill="#000000" font-family="sans-serif" font-size="14" lengthAdjust="spacingAndGlyphs" textLength="188" x="845.5" y="557.5332">System views and procedures</text><!--MD5=[e1c2681f1bf69c1e026bc7e1b712dc20]
entity dwh_ep--><rect fill="#FEFECE" filter="url(#f18kbyfghkxr2z)" height="47.6094" style="stroke: #A80036; stroke-width: 1.5;" width="166" x="629.5" y="523"/><rect fill="#FEFECE" height="10" style="stroke: #A80036; stroke-width: 1.5;" width="15" x="775.5" y="528"/><rect fill="#FEFECE" height="2" style="stroke: #A80036; stroke-width: 1.5;" width="4" x="773.5" y="530"/><rect fill="#FEFECE" height="2" style="stroke: #A80036; stroke-width: 1.5;" width="4" x="773.5" y="534"/><text fill="#000000" font-family="sans-serif" font-size="14" lengthAdjust="spacingAndGlyphs" textLength="126" x="644.5" y="557.5332">extended properties</text><!--MD5=[beb5ad5244d3d849df9473931f7c2e5e]
entity GUI--><rect fill="#FEFECE" filter="url(#f18kbyfghkxr2z)" height="47.6094" style="stroke: #A80036; stroke-width: 1.5;" width="63" x="6" y="119"/><rect fill="#FEFECE" height="10" style="stroke: #A80036; stroke-width: 1.5;" width="15" x="49" y="124"/><rect fill="#FEFECE" height="2" style="stroke: #A80036; stroke-width: 1.5;" width="4" x="47" y="126"/><rect fill="#FEFECE" height="2" style="stroke: #A80036; stroke-width: 1.5;" width="4" x="47" y="130"/><text fill="#000000" font-family="sans-serif" font-size="14" lengthAdjust="spacingAndGlyphs" textLength="23" x="21" y="153.5332">GUI</text><!--MD5=[294cc05359a56b9c0296710c68fdb8fe]
link Synonyms to dwh_sys--><path d="M981.26,167.06 C974.56,236.14 954.66,441.32 947.29,517.29 " fill="none" id="Synonyms-&gt;dwh_sys" style="stroke: #A80036; stroke-width: 1.0;"/><polygon fill="#A80036" points="946.78,522.53,951.6362,513.9616,947.2662,517.5537,943.6741,513.1837,946.78,522.53" style="stroke: #A80036; stroke-width: 1.0;"/><text fill="#000000" font-family="sans-serif" font-size="13" lengthAdjust="spacingAndGlyphs" textLength="35" x="967.5" y="324.4951">link to</text><!--MD5=[c8b41e3abc4f1151712b087885c2d5b3]
link RepoObject to dwh_ep--><path d="M703.41,411.3 C705.43,441.18 708.59,488.02 710.6,517.85 " fill="none" id="RepoObject-dwh_ep" style="stroke: #A80036; stroke-width: 1.0;"/><polygon fill="#A80036" points="710.94,522.85,714.3412,513.6071,710.6121,517.8608,706.3585,514.1317,710.94,522.85" style="stroke: #A80036; stroke-width: 1.0;"/><polygon fill="#A80036" points="703.05,406.01,699.6488,415.2529,703.3779,410.9992,707.6315,414.7283,703.05,406.01" style="stroke: #A80036; stroke-width: 1.0;"/><text fill="#000000" font-family="sans-serif" font-size="13" lengthAdjust="spacingAndGlyphs" textLength="144" x="706.5" y="452.4951">correspond to each other</text><!--MD5=[fb684858ca5a65660000db7f62a6e276]
link Reference to RepoObject--><path d="M695.78,278.11 C696.95,299.03 698.66,329.91 699.91,352.38 " fill="none" id="Reference-&gt;RepoObject" style="stroke: #A80036; stroke-width: 1.0;"/><polygon fill="#A80036" points="700.2,357.61,703.7048,348.4059,699.9282,352.6174,695.7167,348.8408,700.2,357.61" style="stroke: #A80036; stroke-width: 1.0;"/><!--MD5=[8376f88ad4203598c191bb4fee48ec5b]
link Inheritance to RepoObject--><path d="M733.43,167.23 C745.77,175.23 760.02,183.94 773.5,191 C781.62,195.25 787.43,191.37 792.5,199 C824.21,246.76 821.07,278.29 792.5,328 C785.68,339.86 775.08,349.31 763.48,356.75 " fill="none" id="Inheritance-&gt;RepoObject" style="stroke: #A80036; stroke-width: 1.0;"/><polygon fill="#A80036" points="759.17,359.41,768.9293,358.0852,763.4244,356.7831,764.7264,351.2782,759.17,359.41" style="stroke: #A80036; stroke-width: 1.0;"/><!--MD5=[1b5e89c5cbc7386fc0d7f0c82088a65e]
link GeneratorUsp to RepoObject--><path d="M509.6,278.11 C550.39,299.98 611.48,332.74 653.73,355.39 " fill="none" id="GeneratorUsp-&gt;RepoObject" style="stroke: #A80036; stroke-width: 1.0;"/><polygon fill="#A80036" points="658.27,357.82,652.2256,350.0441,653.8626,355.4589,648.4478,357.0959,658.27,357.82" style="stroke: #A80036; stroke-width: 1.0;"/><!--MD5=[1e7fab65b12afc3b25dc15cc359b929c]
link GeneratorPersistence to RepoObject--><path d="M432.02,167.04 C450.92,175.75 473.35,184.99 494.5,191 C553.03,207.62 725.66,184.02 765.5,230 C797.3,266.71 758.31,321.53 728.75,354.04 " fill="none" id="GeneratorPersistence-&gt;RepoObject" style="stroke: #A80036; stroke-width: 1.0;"/><polygon fill="#A80036" points="725.2,357.89,734.2418,353.9855,728.5896,354.2143,728.3608,348.5621,725.2,357.89" style="stroke: #A80036; stroke-width: 1.0;"/><!--MD5=[695693507c2b86179844178d5b1861eb]
link GeneratorView to RepoObject--><path d="M213.4,167.02 C249.6,208.67 323.94,293.09 339.5,302 C434.36,356.3 562.78,373.32 638.42,378.63 " fill="none" id="GeneratorView-&gt;RepoObject" style="stroke: #A80036; stroke-width: 1.0;"/><polygon fill="#A80036" points="643.77,378.99,635.0656,374.382,638.7818,378.647,634.5168,382.3631,643.77,378.99" style="stroke: #A80036; stroke-width: 1.0;"/><!--MD5=[bb9a04f6a7f8f1ba34afc8eb476b7564]
link Reference to SqlParser--><path d="M665.24,278.14 C653.43,286.61 639.33,295.65 625.5,302 C549.34,336.95 454.75,358.91 393.77,370.56 " fill="none" id="Reference-&gt;SqlParser" style="stroke: #A80036; stroke-width: 1.0;"/><polygon fill="#A80036" points="388.71,371.52,398.2962,373.7794,393.6231,370.5917,396.8108,365.9185,388.71,371.52" style="stroke: #A80036; stroke-width: 1.0;"/><!--MD5=[b87995cc24ab4952dc9dec00601ef6f8]
link GeneratorView to SqlParser--><path d="M205.81,167.26 C224.61,202.48 261.94,271.25 296.5,328 C301.58,336.34 307.34,345.26 312.69,353.35 " fill="none" id="GeneratorView-&gt;SqlParser" style="stroke: #A80036; stroke-width: 1.0;"/><polygon fill="#A80036" points="315.62,357.76,313.9713,348.0501,312.8531,353.5954,307.3078,352.4772,315.62,357.76" style="stroke: #A80036; stroke-width: 1.0;"/><!--MD5=[3934ca94ee670560d2441505e1f52242]
link Inheritance to Reference--><path d="M698.44,167.12 C697.67,183.88 696.63,206.65 695.81,224.54 " fill="none" id="Inheritance-&gt;Reference" style="stroke: #A80036; stroke-width: 1.0;"/><polygon fill="#A80036" points="695.56,229.92,699.9668,221.1121,695.7883,224.9252,691.9752,220.7467,695.56,229.92" style="stroke: #A80036; stroke-width: 1.0;"/><!--MD5=[013f576922f003bfa190fc120246f733]
link Workflow to Reference--><path d="M585.79,167.09 C594.46,174.83 604.29,183.41 613.5,191 C628.24,203.15 644.94,216.07 659.33,226.95 " fill="none" id="Workflow-&gt;Reference" style="stroke: #A80036; stroke-width: 1.0;"/><polygon fill="#A80036" points="663.32,229.96,658.52,221.36,659.32,226.96,653.72,227.76,663.32,229.96" style="stroke: #A80036; stroke-width: 1.0;"/><!--MD5=[4621c6c2d0aaed1b936ef46c79c2e7c0]
link GeneratorPersistence to Reference--><path d="M436,167.04 C454.2,175.11 475.1,183.92 494.5,191 C551.57,211.83 567.57,211.73 625.5,230 C629.14,231.15 632.88,232.35 636.66,233.57 " fill="none" id="GeneratorPersistence-&gt;Reference" style="stroke: #A80036; stroke-width: 1.0;"/><polygon fill="#A80036" points="641.44,235.12,634.1309,228.5187,636.6881,233.5646,631.6422,236.1218,641.44,235.12" style="stroke: #A80036; stroke-width: 1.0;"/><!--MD5=[6e2f620c42309db36b3160a7a378a01b]
link GeneratorView to Reference--><path d="M228.51,167.16 C243.6,176.06 261.82,185.41 279.5,191 C316.39,202.66 587.72,221.67 625.5,230 C629.06,230.78 632.7,231.69 636.34,232.67 " fill="none" id="GeneratorView-&gt;Reference" style="stroke: #A80036; stroke-width: 1.0;"/><polygon fill="#A80036" points="641.32,234.05,633.7208,227.7848,636.5028,232.7103,631.5773,235.4923,641.32,234.05" style="stroke: #A80036; stroke-width: 1.0;"/><!--MD5=[1aa5b070158d706d27b2cdc94d836dbd]
link GeneratorPersistence to GeneratorUsp--><path d="M393.99,167.17 C397.99,177.71 403.54,190.02 410.5,200 C417.01,209.34 425.38,218.33 433.66,226.16 " fill="none" id="GeneratorPersistence-&gt;GeneratorUsp" style="stroke: #A80036; stroke-width: 1.0;"/><polygon fill="#A80036" points="437.7,229.91,433.8145,220.86,434.0315,226.5127,428.3788,226.7296,437.7,229.91" style="stroke: #A80036; stroke-width: 1.0;"/><!--MD5=[ac3ea281337b3d9c4f263b7f377b14d1]
@startuml
skinparam componentStyle uml2

[GUI]

database "Repository DB" as repo_db {
  package [Configuration] {
    [Synonyms]
    [Parameter]
  }
  [RepoObject] as RepoObject
  [SQL Parser] as SqlParser
  [Reference] as Reference
  [Inheritance]
  package [Generators] {
    [USP generator (Procedures)] as GeneratorUsp
    [Persistence generator] as GeneratorPersistence
    [View generator] as GeneratorView
    [Workflow]
  }
}

database  "DWH DB" as dwh_db {
  [System views and procedures] as dwh_sys
  [extended properties] as dwh_ep
}

Synonyms - -> dwh_sys    : link to
RepoObject <- -> dwh_ep  : correspond to each other

Reference - -> RepoObject
Inheritance - -> RepoObject
GeneratorUsp - -> RepoObject
GeneratorPersistence - -> RepoObject
GeneratorView - -> RepoObject

Reference - -> SqlParser
GeneratorView - -> SqlParser

Inheritance - -> Reference
Workflow - -> Reference
GeneratorPersistence - -> Reference
GeneratorView - -> Reference

GeneratorPersistence - -> GeneratorUsp
@enduml

PlantUML version 1.2019.12(Sun Nov 03 11:24:54 CET 2019)
(APACHE source distribution)
Java Runtime: Java(TM) SE Runtime Environment
JVM: Java HotSpot(TM) 64-Bit Server VM
Java Version: 1.8.0_281-b09
Operating System: Windows 10
Default Encoding: Cp1252
Language: de
Country: DE
--></g></svg>