<?xml version="1.0" encoding="UTF-8" standalone="no"?><svg xmlns="http://www.w3.org/2000/svg" xmlns:xlink="http://www.w3.org/1999/xlink" contentScriptType="application/ecmascript" contentStyleType="text/css" height="465px" preserveAspectRatio="none" style="width:3926px;height:465px;" version="1.1" viewBox="0 0 3926 465" width="3926px" zoomAndPan="magnify"><defs><filter height="300%" id="f87di64z9xpoh" width="300%" x="-1" y="-1"><feGaussianBlur result="blurOut" stdDeviation="2.0"/><feColorMatrix in="blurOut" result="blurOut2" type="matrix" values="0 0 0 0 0 0 0 0 0 0 0 0 0 0 0 0 0 0 .4 0"/><feOffset dx="4.0" dy="4.0" in="blurOut2" result="blurOut3"/><feBlend in="SourceGraphic" in2="blurOut3" mode="normal"/></filter></defs><g><rect fill="#FFFFFF" filter="url(#f87di64z9xpoh)" height="350" style="stroke: #A80036; stroke-width: 1.0;" width="10" x="67" y="55.6094"/><rect fill="#FFFFFF" filter="url(#f87di64z9xpoh)" height="154" style="stroke: #A80036; stroke-width: 1.0;" width="10" x="222" y="69.6094"/><rect fill="#FFFFFF" filter="url(#f87di64z9xpoh)" height="70" style="stroke: #A80036; stroke-width: 1.0;" width="10" x="435.5" y="83.6094"/><rect fill="#FFFFFF" filter="url(#f87di64z9xpoh)" height="14" style="stroke: #A80036; stroke-width: 1.0;" width="10" x="691.5" y="97.6094"/><rect fill="#FFFFFF" filter="url(#f87di64z9xpoh)" height="14" style="stroke: #A80036; stroke-width: 1.0;" width="10" x="970.5" y="125.6094"/><rect fill="#FFFFFF" filter="url(#f87di64z9xpoh)" height="42" style="stroke: #A80036; stroke-width: 1.0;" width="10" x="1272.5" y="167.6094"/><rect fill="#FFFFFF" filter="url(#f87di64z9xpoh)" height="14" style="stroke: #A80036; stroke-width: 1.0;" width="10" x="1576.5" y="181.6094"/><rect fill="#FFFFFF" filter="url(#f87di64z9xpoh)" height="14" style="stroke: #A80036; stroke-width: 1.0;" width="10" x="1870.5" y="237.6094"/><rect fill="#FFFFFF" filter="url(#f87di64z9xpoh)" height="70" style="stroke: #A80036; stroke-width: 1.0;" width="10" x="2121.5" y="265.6094"/><rect fill="#FFFFFF" filter="url(#f87di64z9xpoh)" height="14" style="stroke: #A80036; stroke-width: 1.0;" width="10" x="2545.5" y="279.6094"/><rect fill="#FFFFFF" filter="url(#f87di64z9xpoh)" height="14" style="stroke: #A80036; stroke-width: 1.0;" width="10" x="2960" y="307.6094"/><rect fill="#FFFFFF" filter="url(#f87di64z9xpoh)" height="14" style="stroke: #A80036; stroke-width: 1.0;" width="10" x="3303" y="349.6094"/><rect fill="#FFFFFF" filter="url(#f87di64z9xpoh)" height="14" style="stroke: #A80036; stroke-width: 1.0;" width="10" x="3732.5" y="377.6094"/><line style="stroke: #A80036; stroke-width: 1.0; stroke-dasharray: 5.0,5.0;" x1="72" x2="72" y1="39.6094" y2="423.6094"/><line style="stroke: #A80036; stroke-width: 1.0; stroke-dasharray: 5.0,5.0;" x1="227" x2="227" y1="39.6094" y2="423.6094"/><line style="stroke: #A80036; stroke-width: 1.0; stroke-dasharray: 5.0,5.0;" x1="440" x2="440" y1="39.6094" y2="423.6094"/><line style="stroke: #A80036; stroke-width: 1.0; stroke-dasharray: 5.0,5.0;" x1="696" x2="696" y1="39.6094" y2="423.6094"/><line style="stroke: #A80036; stroke-width: 1.0; stroke-dasharray: 5.0,5.0;" x1="975" x2="975" y1="39.6094" y2="423.6094"/><line style="stroke: #A80036; stroke-width: 1.0; stroke-dasharray: 5.0,5.0;" x1="1277" x2="1277" y1="39.6094" y2="423.6094"/><line style="stroke: #A80036; stroke-width: 1.0; stroke-dasharray: 5.0,5.0;" x1="1581" x2="1581" y1="39.6094" y2="423.6094"/><line style="stroke: #A80036; stroke-width: 1.0; stroke-dasharray: 5.0,5.0;" x1="1875" x2="1875" y1="39.6094" y2="423.6094"/><line style="stroke: #A80036; stroke-width: 1.0; stroke-dasharray: 5.0,5.0;" x1="2126" x2="2126" y1="39.6094" y2="423.6094"/><line style="stroke: #A80036; stroke-width: 1.0; stroke-dasharray: 5.0,5.0;" x1="2550" x2="2550" y1="39.6094" y2="423.6094"/><line style="stroke: #A80036; stroke-width: 1.0; stroke-dasharray: 5.0,5.0;" x1="2965" x2="2965" y1="39.6094" y2="423.6094"/><line style="stroke: #A80036; stroke-width: 1.0; stroke-dasharray: 5.0,5.0;" x1="3308" x2="3308" y1="39.6094" y2="423.6094"/><line style="stroke: #A80036; stroke-width: 1.0; stroke-dasharray: 5.0,5.0;" x1="3737" x2="3737" y1="39.6094" y2="423.6094"/><rect fill="#FEFECE" filter="url(#f87di64z9xpoh)" height="31.6094" style="stroke: #A80036; stroke-width: 1.5;" width="124" x="8" y="3"/><text fill="#000000" font-family="sans-serif" font-size="14" lengthAdjust="spacingAndGlyphs" textLength="110" x="15" y="24.5332">[repo].[usp_main]</text><rect fill="#FEFECE" filter="url(#f87di64z9xpoh)" height="31.6094" style="stroke: #A80036; stroke-width: 1.5;" width="124" x="8" y="422.6094"/><text fill="#000000" font-family="sans-serif" font-size="14" lengthAdjust="spacingAndGlyphs" textLength="110" x="15" y="444.1426">[repo].[usp_main]</text><rect fill="#FEFECE" filter="url(#f87di64z9xpoh)" height="31.6094" style="stroke: #A80036; stroke-width: 1.5;" width="158" x="146" y="3"/><text fill="#000000" font-family="sans-serif" font-size="14" lengthAdjust="spacingAndGlyphs" textLength="144" x="153" y="24.5332">[repo].[usp_sync_guid]</text><rect fill="#FEFECE" filter="url(#f87di64z9xpoh)" height="31.6094" style="stroke: #A80036; stroke-width: 1.5;" width="158" x="146" y="422.6094"/><text fill="#000000" font-family="sans-serif" font-size="14" lengthAdjust="spacingAndGlyphs" textLength="144" x="153" y="444.1426">[repo].[usp_sync_guid]</text><rect fill="#FEFECE" filter="url(#f87di64z9xpoh)" height="31.6094" style="stroke: #A80036; stroke-width: 1.5;" width="241" x="318" y="3"/><text fill="#000000" font-family="sans-serif" font-size="14" lengthAdjust="spacingAndGlyphs" textLength="227" x="325" y="24.5332">[repo].[usp_sync_guid_RepoObject]</text><rect fill="#FEFECE" filter="url(#f87di64z9xpoh)" height="31.6094" style="stroke: #A80036; stroke-width: 1.5;" width="241" x="318" y="422.6094"/><text fill="#000000" font-family="sans-serif" font-size="14" lengthAdjust="spacingAndGlyphs" textLength="227" x="325" y="444.1426">[repo].[usp_sync_guid_RepoObject]</text><rect fill="#FEFECE" filter="url(#f87di64z9xpoh)" height="31.6094" style="stroke: #A80036; stroke-width: 1.5;" width="243" x="573" y="3"/><text fill="#000000" font-family="sans-serif" font-size="14" lengthAdjust="spacingAndGlyphs" textLength="229" x="580" y="24.5332">[graph].[usp_PERSIST_RepoObject]</text><rect fill="#FEFECE" filter="url(#f87di64z9xpoh)" height="31.6094" style="stroke: #A80036; stroke-width: 1.5;" width="243" x="573" y="422.6094"/><text fill="#000000" font-family="sans-serif" font-size="14" lengthAdjust="spacingAndGlyphs" textLength="229" x="580" y="444.1426">[graph].[usp_PERSIST_RepoObject]</text><rect fill="#FEFECE" filter="url(#f87di64z9xpoh)" height="31.6094" style="stroke: #A80036; stroke-width: 1.5;" width="287" x="830" y="3"/><text fill="#000000" font-family="sans-serif" font-size="14" lengthAdjust="spacingAndGlyphs" textLength="273" x="837" y="24.5332">[graph].[usp_PERSIST_ProcedureInstance]</text><rect fill="#FEFECE" filter="url(#f87di64z9xpoh)" height="31.6094" style="stroke: #A80036; stroke-width: 1.5;" width="287" x="830" y="422.6094"/><text fill="#000000" font-family="sans-serif" font-size="14" lengthAdjust="spacingAndGlyphs" textLength="273" x="837" y="444.1426">[graph].[usp_PERSIST_ProcedureInstance]</text><rect fill="#FEFECE" filter="url(#f87di64z9xpoh)" height="31.6094" style="stroke: #A80036; stroke-width: 1.5;" width="289" x="1131" y="3"/><text fill="#000000" font-family="sans-serif" font-size="14" lengthAdjust="spacingAndGlyphs" textLength="275" x="1138" y="24.5332">[repo].[usp_sync_guid_RepoObjectColumn]</text><rect fill="#FEFECE" filter="url(#f87di64z9xpoh)" height="31.6094" style="stroke: #A80036; stroke-width: 1.5;" width="289" x="1131" y="422.6094"/><text fill="#000000" font-family="sans-serif" font-size="14" lengthAdjust="spacingAndGlyphs" textLength="275" x="1138" y="444.1426">[repo].[usp_sync_guid_RepoObjectColumn]</text><rect fill="#FEFECE" filter="url(#f87di64z9xpoh)" height="31.6094" style="stroke: #A80036; stroke-width: 1.5;" width="291" x="1434" y="3"/><text fill="#000000" font-family="sans-serif" font-size="14" lengthAdjust="spacingAndGlyphs" textLength="277" x="1441" y="24.5332">[graph].[usp_PERSIST_RepoObjectColumn]</text><rect fill="#FEFECE" filter="url(#f87di64z9xpoh)" height="31.6094" style="stroke: #A80036; stroke-width: 1.5;" width="291" x="1434" y="422.6094"/><text fill="#000000" font-family="sans-serif" font-size="14" lengthAdjust="spacingAndGlyphs" textLength="277" x="1441" y="444.1426">[graph].[usp_PERSIST_RepoObjectColumn]</text><rect fill="#FEFECE" filter="url(#f87di64z9xpoh)" height="31.6094" style="stroke: #A80036; stroke-width: 1.5;" width="269" x="1739" y="3"/><text fill="#000000" font-family="sans-serif" font-size="14" lengthAdjust="spacingAndGlyphs" textLength="255" x="1746" y="24.5332">[repo].[usp_update_Referencing_Count]</text><rect fill="#FEFECE" filter="url(#f87di64z9xpoh)" height="31.6094" style="stroke: #A80036; stroke-width: 1.5;" width="269" x="1739" y="422.6094"/><text fill="#000000" font-family="sans-serif" font-size="14" lengthAdjust="spacingAndGlyphs" textLength="255" x="1746" y="444.1426">[repo].[usp_update_Referencing_Count]</text><rect fill="#FEFECE" filter="url(#f87di64z9xpoh)" height="31.6094" style="stroke: #A80036; stroke-width: 1.5;" width="205" x="2022" y="3"/><text fill="#000000" font-family="sans-serif" font-size="14" lengthAdjust="spacingAndGlyphs" textLength="191" x="2029" y="24.5332">[repo].[usp_index_inheritance]</text><rect fill="#FEFECE" filter="url(#f87di64z9xpoh)" height="31.6094" style="stroke: #A80036; stroke-width: 1.5;" width="205" x="2022" y="422.6094"/><text fill="#000000" font-family="sans-serif" font-size="14" lengthAdjust="spacingAndGlyphs" textLength="191" x="2029" y="444.1426">[repo].[usp_index_inheritance]</text><rect fill="#FEFECE" filter="url(#f87di64z9xpoh)" height="31.6094" style="stroke: #A80036; stroke-width: 1.5;" width="615" x="2241" y="3"/><text fill="#000000" font-family="sans-serif" font-size="14" lengthAdjust="spacingAndGlyphs" textLength="601" x="2248" y="24.5332">[repo].[usp_PERSIST_IndexColumn_ReferencedReferencing_HasFullColumnsInReferencing_T]</text><rect fill="#FEFECE" filter="url(#f87di64z9xpoh)" height="31.6094" style="stroke: #A80036; stroke-width: 1.5;" width="615" x="2241" y="422.6094"/><text fill="#000000" font-family="sans-serif" font-size="14" lengthAdjust="spacingAndGlyphs" textLength="601" x="2248" y="444.1426">[repo].[usp_PERSIST_IndexColumn_ReferencedReferencing_HasFullColumnsInReferencing_T]</text><rect fill="#FEFECE" filter="url(#f87di64z9xpoh)" height="31.6094" style="stroke: #A80036; stroke-width: 1.5;" width="186" x="2870" y="3"/><text fill="#000000" font-family="sans-serif" font-size="14" lengthAdjust="spacingAndGlyphs" textLength="172" x="2877" y="24.5332">[repo].[usp_Index_Settings]</text><rect fill="#FEFECE" filter="url(#f87di64z9xpoh)" height="31.6094" style="stroke: #A80036; stroke-width: 1.5;" width="186" x="2870" y="422.6094"/><text fill="#000000" font-family="sans-serif" font-size="14" lengthAdjust="spacingAndGlyphs" textLength="172" x="2877" y="444.1426">[repo].[usp_Index_Settings]</text><rect fill="#FEFECE" filter="url(#f87di64z9xpoh)" height="31.6094" style="stroke: #A80036; stroke-width: 1.5;" width="472" x="3070" y="3"/><text fill="#000000" font-family="sans-serif" font-size="14" lengthAdjust="spacingAndGlyphs" textLength="458" x="3077" y="24.5332">[repo].[usp_RepoObjectColumn_update_RepoObjectColumn_column_id]</text><rect fill="#FEFECE" filter="url(#f87di64z9xpoh)" height="31.6094" style="stroke: #A80036; stroke-width: 1.5;" width="472" x="3070" y="422.6094"/><text fill="#000000" font-family="sans-serif" font-size="14" lengthAdjust="spacingAndGlyphs" textLength="458" x="3077" y="444.1426">[repo].[usp_RepoObjectColumn_update_RepoObjectColumn_column_id]</text><rect fill="#FEFECE" filter="url(#f87di64z9xpoh)" height="31.6094" style="stroke: #A80036; stroke-width: 1.5;" width="359" x="3556" y="3"/><text fill="#000000" font-family="sans-serif" font-size="14" lengthAdjust="spacingAndGlyphs" textLength="345" x="3563" y="24.5332">[repo].[usp_GeneratorUsp_insert_update_persistence]</text><rect fill="#FEFECE" filter="url(#f87di64z9xpoh)" height="31.6094" style="stroke: #A80036; stroke-width: 1.5;" width="359" x="3556" y="422.6094"/><text fill="#000000" font-family="sans-serif" font-size="14" lengthAdjust="spacingAndGlyphs" textLength="345" x="3563" y="444.1426">[repo].[usp_GeneratorUsp_insert_update_persistence]</text><rect fill="#FFFFFF" filter="url(#f87di64z9xpoh)" height="350" style="stroke: #A80036; stroke-width: 1.0;" width="10" x="67" y="55.6094"/><rect fill="#FFFFFF" filter="url(#f87di64z9xpoh)" height="154" style="stroke: #A80036; stroke-width: 1.0;" width="10" x="222" y="69.6094"/><rect fill="#FFFFFF" filter="url(#f87di64z9xpoh)" height="70" style="stroke: #A80036; stroke-width: 1.0;" width="10" x="435.5" y="83.6094"/><rect fill="#FFFFFF" filter="url(#f87di64z9xpoh)" height="14" style="stroke: #A80036; stroke-width: 1.0;" width="10" x="691.5" y="97.6094"/><rect fill="#FFFFFF" filter="url(#f87di64z9xpoh)" height="14" style="stroke: #A80036; stroke-width: 1.0;" width="10" x="970.5" y="125.6094"/><rect fill="#FFFFFF" filter="url(#f87di64z9xpoh)" height="42" style="stroke: #A80036; stroke-width: 1.0;" width="10" x="1272.5" y="167.6094"/><rect fill="#FFFFFF" filter="url(#f87di64z9xpoh)" height="14" style="stroke: #A80036; stroke-width: 1.0;" width="10" x="1576.5" y="181.6094"/><rect fill="#FFFFFF" filter="url(#f87di64z9xpoh)" height="14" style="stroke: #A80036; stroke-width: 1.0;" width="10" x="1870.5" y="237.6094"/><rect fill="#FFFFFF" filter="url(#f87di64z9xpoh)" height="70" style="stroke: #A80036; stroke-width: 1.0;" width="10" x="2121.5" y="265.6094"/><rect fill="#FFFFFF" filter="url(#f87di64z9xpoh)" height="14" style="stroke: #A80036; stroke-width: 1.0;" width="10" x="2545.5" y="279.6094"/><rect fill="#FFFFFF" filter="url(#f87di64z9xpoh)" height="14" style="stroke: #A80036; stroke-width: 1.0;" width="10" x="2960" y="307.6094"/><rect fill="#FFFFFF" filter="url(#f87di64z9xpoh)" height="14" style="stroke: #A80036; stroke-width: 1.0;" width="10" x="3303" y="349.6094"/><rect fill="#FFFFFF" filter="url(#f87di64z9xpoh)" height="14" style="stroke: #A80036; stroke-width: 1.0;" width="10" x="3732.5" y="377.6094"/><polygon fill="#A80036" points="55,51.6094,65,55.6094,55,59.6094,59,55.6094" style="stroke: #A80036; stroke-width: 1.0;"/><line style="stroke: #A80036; stroke-width: 1.0;" x1="3" x2="61" y1="55.6094" y2="55.6094"/><polygon fill="#A80036" points="210,65.6094,220,69.6094,210,73.6094,214,69.6094" style="stroke: #A80036; stroke-width: 1.0;"/><line style="stroke: #A80036; stroke-width: 1.0;" x1="77" x2="216" y1="69.6094" y2="69.6094"/><polygon fill="#A80036" points="423.5,79.6094,433.5,83.6094,423.5,87.6094,427.5,83.6094" style="stroke: #A80036; stroke-width: 1.0;"/><line style="stroke: #A80036; stroke-width: 1.0;" x1="232" x2="429.5" y1="83.6094" y2="83.6094"/><polygon fill="#A80036" points="679.5,93.6094,689.5,97.6094,679.5,101.6094,683.5,97.6094" style="stroke: #A80036; stroke-width: 1.0;"/><line style="stroke: #A80036; stroke-width: 1.0;" x1="445.5" x2="685.5" y1="97.6094" y2="97.6094"/><polygon fill="#A80036" points="456.5,107.6094,446.5,111.6094,456.5,115.6094,452.5,111.6094" style="stroke: #A80036; stroke-width: 1.0;"/><line style="stroke: #A80036; stroke-width: 1.0;" x1="450.5" x2="695.5" y1="111.6094" y2="111.6094"/><polygon fill="#A80036" points="958.5,121.6094,968.5,125.6094,958.5,129.6094,962.5,125.6094" style="stroke: #A80036; stroke-width: 1.0;"/><line style="stroke: #A80036; stroke-width: 1.0;" x1="445.5" x2="964.5" y1="125.6094" y2="125.6094"/><polygon fill="#A80036" points="456.5,135.6094,446.5,139.6094,456.5,143.6094,452.5,139.6094" style="stroke: #A80036; stroke-width: 1.0;"/><line style="stroke: #A80036; stroke-width: 1.0;" x1="450.5" x2="974.5" y1="139.6094" y2="139.6094"/><polygon fill="#A80036" points="243,149.6094,233,153.6094,243,157.6094,239,153.6094" style="stroke: #A80036; stroke-width: 1.0;"/><line style="stroke: #A80036; stroke-width: 1.0;" x1="237" x2="439.5" y1="153.6094" y2="153.6094"/><polygon fill="#A80036" points="1260.5,163.6094,1270.5,167.6094,1260.5,171.6094,1264.5,167.6094" style="stroke: #A80036; stroke-width: 1.0;"/><line style="stroke: #A80036; stroke-width: 1.0;" x1="232" x2="1266.5" y1="167.6094" y2="167.6094"/><polygon fill="#A80036" points="1564.5,177.6094,1574.5,181.6094,1564.5,185.6094,1568.5,181.6094" style="stroke: #A80036; stroke-width: 1.0;"/><line style="stroke: #A80036; stroke-width: 1.0;" x1="1282.5" x2="1570.5" y1="181.6094" y2="181.6094"/><polygon fill="#A80036" points="1293.5,191.6094,1283.5,195.6094,1293.5,199.6094,1289.5,195.6094" style="stroke: #A80036; stroke-width: 1.0;"/><line style="stroke: #A80036; stroke-width: 1.0;" x1="1287.5" x2="1580.5" y1="195.6094" y2="195.6094"/><polygon fill="#A80036" points="243,205.6094,233,209.6094,243,213.6094,239,209.6094" style="stroke: #A80036; stroke-width: 1.0;"/><line style="stroke: #A80036; stroke-width: 1.0;" x1="237" x2="1276.5" y1="209.6094" y2="209.6094"/><polygon fill="#A80036" points="88,219.6094,78,223.6094,88,227.6094,84,223.6094" style="stroke: #A80036; stroke-width: 1.0;"/><line style="stroke: #A80036; stroke-width: 1.0;" x1="82" x2="226" y1="223.6094" y2="223.6094"/><polygon fill="#A80036" points="1858.5,233.6094,1868.5,237.6094,1858.5,241.6094,1862.5,237.6094" style="stroke: #A80036; stroke-width: 1.0;"/><line style="stroke: #A80036; stroke-width: 1.0;" x1="77" x2="1864.5" y1="237.6094" y2="237.6094"/><polygon fill="#A80036" points="88,247.6094,78,251.6094,88,255.6094,84,251.6094" style="stroke: #A80036; stroke-width: 1.0;"/><line style="stroke: #A80036; stroke-width: 1.0;" x1="82" x2="1874.5" y1="251.6094" y2="251.6094"/><polygon fill="#A80036" points="2109.5,261.6094,2119.5,265.6094,2109.5,269.6094,2113.5,265.6094" style="stroke: #A80036; stroke-width: 1.0;"/><line style="stroke: #A80036; stroke-width: 1.0;" x1="77" x2="2115.5" y1="265.6094" y2="265.6094"/><polygon fill="#A80036" points="2533.5,275.6094,2543.5,279.6094,2533.5,283.6094,2537.5,279.6094" style="stroke: #A80036; stroke-width: 1.0;"/><line style="stroke: #A80036; stroke-width: 1.0;" x1="2131.5" x2="2539.5" y1="279.6094" y2="279.6094"/><polygon fill="#A80036" points="2142.5,289.6094,2132.5,293.6094,2142.5,297.6094,2138.5,293.6094" style="stroke: #A80036; stroke-width: 1.0;"/><line style="stroke: #A80036; stroke-width: 1.0;" x1="2136.5" x2="2549.5" y1="293.6094" y2="293.6094"/><polygon fill="#A80036" points="2948,303.6094,2958,307.6094,2948,311.6094,2952,307.6094" style="stroke: #A80036; stroke-width: 1.0;"/><line style="stroke: #A80036; stroke-width: 1.0;" x1="2131.5" x2="2954" y1="307.6094" y2="307.6094"/><polygon fill="#A80036" points="2142.5,317.6094,2132.5,321.6094,2142.5,325.6094,2138.5,321.6094" style="stroke: #A80036; stroke-width: 1.0;"/><line style="stroke: #A80036; stroke-width: 1.0;" x1="2136.5" x2="2964" y1="321.6094" y2="321.6094"/><polygon fill="#A80036" points="88,331.6094,78,335.6094,88,339.6094,84,335.6094" style="stroke: #A80036; stroke-width: 1.0;"/><line style="stroke: #A80036; stroke-width: 1.0;" x1="82" x2="2125.5" y1="335.6094" y2="335.6094"/><polygon fill="#A80036" points="3291,345.6094,3301,349.6094,3291,353.6094,3295,349.6094" style="stroke: #A80036; stroke-width: 1.0;"/><line style="stroke: #A80036; stroke-width: 1.0;" x1="77" x2="3297" y1="349.6094" y2="349.6094"/><polygon fill="#A80036" points="88,359.6094,78,363.6094,88,367.6094,84,363.6094" style="stroke: #A80036; stroke-width: 1.0;"/><line style="stroke: #A80036; stroke-width: 1.0;" x1="82" x2="3307" y1="363.6094" y2="363.6094"/><polygon fill="#A80036" points="3720.5,373.6094,3730.5,377.6094,3720.5,381.6094,3724.5,377.6094" style="stroke: #A80036; stroke-width: 1.0;"/><line style="stroke: #A80036; stroke-width: 1.0;" x1="77" x2="3726.5" y1="377.6094" y2="377.6094"/><polygon fill="#A80036" points="88,387.6094,78,391.6094,88,395.6094,84,391.6094" style="stroke: #A80036; stroke-width: 1.0;"/><line style="stroke: #A80036; stroke-width: 1.0;" x1="82" x2="3736.5" y1="391.6094" y2="391.6094"/><polygon fill="#A80036" points="14,401.6094,4,405.6094,14,409.6094,10,405.6094" style="stroke: #A80036; stroke-width: 1.0;"/><line style="stroke: #A80036; stroke-width: 1.0;" x1="8" x2="71" y1="405.6094" y2="405.6094"/><!--MD5=[81e95e6939660073672cd18bb2474948]
@startuml
 -> "[repo].[usp_main]"
activate "[repo].[usp_main]"
"[repo].[usp_main]" -> "[repo].[usp_sync_guid]"
activate "[repo].[usp_sync_guid]"
"[repo].[usp_sync_guid]" -> "[repo].[usp_sync_guid_RepoObject]"
activate "[repo].[usp_sync_guid_RepoObject]"
"[repo].[usp_sync_guid_RepoObject]" -> "[graph].[usp_PERSIST_RepoObject]"
activate "[graph].[usp_PERSIST_RepoObject]"
"[repo].[usp_sync_guid_RepoObject]" <- "[graph].[usp_PERSIST_RepoObject]"
deactivate "[graph].[usp_PERSIST_RepoObject]"
"[repo].[usp_sync_guid_RepoObject]" -> "[graph].[usp_PERSIST_ProcedureInstance]"
activate "[graph].[usp_PERSIST_ProcedureInstance]"
"[repo].[usp_sync_guid_RepoObject]" <- "[graph].[usp_PERSIST_ProcedureInstance]"
deactivate "[graph].[usp_PERSIST_ProcedureInstance]"
"[repo].[usp_sync_guid]" <- "[repo].[usp_sync_guid_RepoObject]"
deactivate "[repo].[usp_sync_guid_RepoObject]"
"[repo].[usp_sync_guid]" -> "[repo].[usp_sync_guid_RepoObjectColumn]"
activate "[repo].[usp_sync_guid_RepoObjectColumn]"
"[repo].[usp_sync_guid_RepoObjectColumn]" -> "[graph].[usp_PERSIST_RepoObjectColumn]"
activate "[graph].[usp_PERSIST_RepoObjectColumn]"
"[repo].[usp_sync_guid_RepoObjectColumn]" <- "[graph].[usp_PERSIST_RepoObjectColumn]"
deactivate "[graph].[usp_PERSIST_RepoObjectColumn]"
"[repo].[usp_sync_guid]" <- "[repo].[usp_sync_guid_RepoObjectColumn]"
deactivate "[repo].[usp_sync_guid_RepoObjectColumn]"
"[repo].[usp_main]" <- "[repo].[usp_sync_guid]"
deactivate "[repo].[usp_sync_guid]"
"[repo].[usp_main]" -> "[repo].[usp_update_Referencing_Count]"
activate "[repo].[usp_update_Referencing_Count]"
"[repo].[usp_main]" <- "[repo].[usp_update_Referencing_Count]"
deactivate "[repo].[usp_update_Referencing_Count]"
"[repo].[usp_main]" -> "[repo].[usp_index_inheritance]"
activate "[repo].[usp_index_inheritance]"
"[repo].[usp_index_inheritance]" -> "[repo].[usp_PERSIST_IndexColumn_ReferencedReferencing_HasFullColumnsInReferencing_T]"
activate "[repo].[usp_PERSIST_IndexColumn_ReferencedReferencing_HasFullColumnsInReferencing_T]"
"[repo].[usp_index_inheritance]" <- "[repo].[usp_PERSIST_IndexColumn_ReferencedReferencing_HasFullColumnsInReferencing_T]"
deactivate "[repo].[usp_PERSIST_IndexColumn_ReferencedReferencing_HasFullColumnsInReferencing_T]"
"[repo].[usp_index_inheritance]" -> "[repo].[usp_Index_Settings]"
activate "[repo].[usp_Index_Settings]"
"[repo].[usp_index_inheritance]" <- "[repo].[usp_Index_Settings]"
deactivate "[repo].[usp_Index_Settings]"
"[repo].[usp_main]" <- "[repo].[usp_index_inheritance]"
deactivate "[repo].[usp_index_inheritance]"
"[repo].[usp_main]" -> "[repo].[usp_RepoObjectColumn_update_RepoObjectColumn_column_id]"
activate "[repo].[usp_RepoObjectColumn_update_RepoObjectColumn_column_id]"
"[repo].[usp_main]" <- "[repo].[usp_RepoObjectColumn_update_RepoObjectColumn_column_id]"
deactivate "[repo].[usp_RepoObjectColumn_update_RepoObjectColumn_column_id]"
"[repo].[usp_main]" -> "[repo].[usp_GeneratorUsp_insert_update_persistence]"
activate "[repo].[usp_GeneratorUsp_insert_update_persistence]"
"[repo].[usp_main]" <- "[repo].[usp_GeneratorUsp_insert_update_persistence]"
deactivate "[repo].[usp_GeneratorUsp_insert_update_persistence]"
 <- "[repo].[usp_main]"
deactivate "[repo].[usp_main]"
@enduml

PlantUML version 1.2019.12(Sun Nov 03 11:24:54 CET 2019)
(APACHE source distribution)
Java Runtime: Java(TM) SE Runtime Environment
JVM: Java HotSpot(TM) 64-Bit Server VM
Java Version: 1.8.0_281-b09
Operating System: Windows 10
Default Encoding: Cp1252
Language: de
Country: DE
--></g></svg>