<?xml version="1.0" encoding="UTF-8" standalone="no"?><svg xmlns="http://www.w3.org/2000/svg" xmlns:xlink="http://www.w3.org/1999/xlink" contentScriptType="application/ecmascript" contentStyleType="text/css" height="668px" preserveAspectRatio="none" style="width:2047px;height:668px;" version="1.1" viewBox="0 0 2047 668" width="2047px" zoomAndPan="magnify"><defs><filter height="300%" id="f1ggo73iaznhfk" width="300%" x="-1" y="-1"><feGaussianBlur result="blurOut" stdDeviation="2.0"/><feColorMatrix in="blurOut" result="blurOut2" type="matrix" values="0 0 0 0 0 0 0 0 0 0 0 0 0 0 0 0 0 0 .4 0"/><feOffset dx="4.0" dy="4.0" in="blurOut2" result="blurOut3"/><feBlend in="SourceGraphic" in2="blurOut3" mode="normal"/></filter></defs><g><!--MD5=[f53b2f8dece910fd17faac8a392a6e63]
cluster mssql_dev--><polygon fill="#FFFFFF" filter="url(#f1ggo73iaznhfk)" points="22,24,114,24,121,47.6094,2025,47.6094,2025,656,22,656,22,24" style="stroke: #000000; stroke-width: 1.5;"/><line style="stroke: #000000; stroke-width: 1.5;" x1="22" x2="121" y1="47.6094" y2="47.6094"/><text fill="#000000" font-family="sans-serif" font-size="14" font-weight="bold" lengthAdjust="spacingAndGlyphs" textLength="86" x="26" y="40.5332">MS SQL Dev</text><!--MD5=[9556fe0499d043d8224b8ead9bf5b70d]
cluster project_a_repo_db--><path d="M46,78 C46,68 371.5,68 371.5,68 C371.5,68 697,68 697,78 L697,448 C697,458 371.5,458 371.5,458 C371.5,458 46,458 46,448 L46,78 " fill="#FFFFFF" filter="url(#f1ggo73iaznhfk)" style="stroke: #000000; stroke-width: 1.5;"/><path d="M46,78 C46,88 371.5,88 371.5,88 C371.5,88 697,88 697,78 " fill="none" style="stroke: #000000; stroke-width: 1.5;"/><text fill="#000000" font-family="sans-serif" font-size="14" font-weight="bold" lengthAdjust="spacingAndGlyphs" textLength="167" x="288" y="104.5332">Project A Repository DB</text><!--MD5=[6e9c47b1fcaabc0d056d363996650878]
cluster project_a_scripts--><polygon fill="#FFFFFF" filter="url(#f1ggo73iaznhfk)" points="70,127,359,127,366,150.6094,399,150.6094,399,434,70,434,70,127" style="stroke: #000000; stroke-width: 1.5;"/><line style="stroke: #000000; stroke-width: 1.5;" x1="70" x2="366" y1="150.6094" y2="150.6094"/><text fill="#000000" font-family="sans-serif" font-size="14" font-weight="bold" lengthAdjust="spacingAndGlyphs" textLength="283" x="74" y="143.5332">generated scripts for objects in DWH DB</text><!--MD5=[51f68337a8f2dbc1f7a45de4c1de6b53]
cluster project_a_dwh_db--><path d="M721,285 C721,275 1361,275 1361,275 C1361,275 2001,275 2001,285 L2001,622 C2001,632 1361,632 1361,632 C1361,632 721,632 721,622 L721,285 " fill="#FFFFFF" filter="url(#f1ggo73iaznhfk)" style="stroke: #000000; stroke-width: 1.5;"/><path d="M721,285 C721,295 1361,295 1361,295 C1361,295 2001,295 2001,285 " fill="none" style="stroke: #000000; stroke-width: 1.5;"/><text fill="#000000" font-family="sans-serif" font-size="14" font-weight="bold" lengthAdjust="spacingAndGlyphs" textLength="124" x="1299" y="311.5332">Project A DWH DB</text><!--MD5=[a8cc8ead5f4e8fb0cc2aa927345ef930]
cluster optional--><rect fill="#FFFFFF" filter="url(#f1ggo73iaznhfk)" height="100" style="stroke: #000000; stroke-width: 1.5;" width="124" x="1539" y="508"/><path d="M1606,509 L1606,518.6094 L1596,528.6094 L1539,528.6094 " fill="none" style="stroke: #000000; stroke-width: 1.5;"/><text fill="#000000" font-family="sans-serif" font-size="14" font-weight="bold" lengthAdjust="spacingAndGlyphs" textLength="57" x="1542" y="523.5332">optional</text><!--MD5=[579b07572e276b310d4e89275b2895a6]
cluster project_a_generated_objects--><polygon fill="#FFFFFF" filter="url(#f1ggo73iaznhfk)" points="1575,334,1872,334,1879,357.6094,1977,357.6094,1977,434,1575,434,1575,334" style="stroke: #000000; stroke-width: 1.5;"/><line style="stroke: #000000; stroke-width: 1.5;" x1="1575" x2="1879" y1="357.6094" y2="357.6094"/><text fill="#000000" font-family="sans-serif" font-size="14" font-weight="bold" lengthAdjust="spacingAndGlyphs" textLength="291" x="1579" y="350.5332">objects, generated based on repo scripts</text><!--MD5=[5ebd2e001c4186e7c03c79d1f00341f5]
cluster project_a_objects--><polygon fill="#FFFFFF" filter="url(#f1ggo73iaznhfk)" points="1185,334,1295,334,1302,357.6094,1551,357.6094,1551,434,1185,434,1185,334" style="stroke: #000000; stroke-width: 1.5;"/><line style="stroke: #000000; stroke-width: 1.5;" x1="1185" x2="1302" y1="357.6094" y2="357.6094"/><text fill="#000000" font-family="sans-serif" font-size="14" font-weight="bold" lengthAdjust="spacingAndGlyphs" textLength="104" x="1189" y="350.5332">normal objects</text><!--MD5=[f3cc169ee3ad5a1601dc7c8c5ce8f74f]
entity repo_syn--><rect fill="#FEFECE" filter="url(#f1ggo73iaznhfk)" height="47.6094" style="stroke: #A80036; stroke-width: 1.5;" width="105" x="418.5" y="163"/><rect fill="#FEFECE" height="10" style="stroke: #A80036; stroke-width: 1.5;" width="15" x="503.5" y="168"/><rect fill="#FEFECE" height="2" style="stroke: #A80036; stroke-width: 1.5;" width="4" x="501.5" y="170"/><rect fill="#FEFECE" height="2" style="stroke: #A80036; stroke-width: 1.5;" width="4" x="501.5" y="174"/><text fill="#000000" font-family="sans-serif" font-size="14" lengthAdjust="spacingAndGlyphs" textLength="65" x="433.5" y="197.5332">Synonyms</text><!--MD5=[ee0b690540bf29014d25f65e14accb12]
entity repo_object--><rect fill="#FEFECE" filter="url(#f1ggo73iaznhfk)" height="47.6094" style="stroke: #A80036; stroke-width: 1.5;" width="122" x="559" y="163"/><rect fill="#FEFECE" height="10" style="stroke: #A80036; stroke-width: 1.5;" width="15" x="661" y="168"/><rect fill="#FEFECE" height="2" style="stroke: #A80036; stroke-width: 1.5;" width="4" x="659" y="170"/><rect fill="#FEFECE" height="2" style="stroke: #A80036; stroke-width: 1.5;" width="4" x="659" y="174"/><text fill="#000000" font-family="sans-serif" font-size="14" lengthAdjust="spacingAndGlyphs" textLength="82" x="574" y="197.5332">RepoObjects</text><!--MD5=[ca6bb09a2151132619dba706240fd082]
entity procedure scripts--><rect fill="#FEFECE" filter="url(#f1ggo73iaznhfk)" height="47.6094" style="stroke: #A80036; stroke-width: 1.5;" width="150" x="86" y="163"/><rect fill="#FEFECE" height="10" style="stroke: #A80036; stroke-width: 1.5;" width="15" x="216" y="168"/><rect fill="#FEFECE" height="2" style="stroke: #A80036; stroke-width: 1.5;" width="4" x="214" y="170"/><rect fill="#FEFECE" height="2" style="stroke: #A80036; stroke-width: 1.5;" width="4" x="214" y="174"/><text fill="#000000" font-family="sans-serif" font-size="14" lengthAdjust="spacingAndGlyphs" textLength="110" x="101" y="197.5332">procedure scripts</text><!--MD5=[4c7baa8aed03c1e83f29867f384aa0b4]
entity view scripts--><rect fill="#FEFECE" filter="url(#f1ggo73iaznhfk)" height="47.6094" style="stroke: #A80036; stroke-width: 1.5;" width="112" x="271" y="163"/><rect fill="#FEFECE" height="10" style="stroke: #A80036; stroke-width: 1.5;" width="15" x="363" y="168"/><rect fill="#FEFECE" height="2" style="stroke: #A80036; stroke-width: 1.5;" width="4" x="361" y="170"/><rect fill="#FEFECE" height="2" style="stroke: #A80036; stroke-width: 1.5;" width="4" x="361" y="174"/><text fill="#000000" font-family="sans-serif" font-size="14" lengthAdjust="spacingAndGlyphs" textLength="72" x="286" y="197.5332">view scripts</text><!--MD5=[faf158f67e2c44ce0f20fc1e3b085134]
entity table scripts--><rect fill="#FEFECE" filter="url(#f1ggo73iaznhfk)" height="47.6094" style="stroke: #A80036; stroke-width: 1.5;" width="116" x="103" y="370"/><rect fill="#FEFECE" height="10" style="stroke: #A80036; stroke-width: 1.5;" width="15" x="199" y="375"/><rect fill="#FEFECE" height="2" style="stroke: #A80036; stroke-width: 1.5;" width="4" x="197" y="377"/><rect fill="#FEFECE" height="2" style="stroke: #A80036; stroke-width: 1.5;" width="4" x="197" y="381"/><text fill="#000000" font-family="sans-serif" font-size="14" lengthAdjust="spacingAndGlyphs" textLength="76" x="118" y="404.5332">table scripts</text><!--MD5=[274b4989e7a418ce5213e9232dc0a52b]
entity dwh_sys--><rect fill="#FEFECE" filter="url(#f1ggo73iaznhfk)" height="47.6094" style="stroke: #A80036; stroke-width: 1.5;" width="228" x="737" y="370"/><rect fill="#FEFECE" height="10" style="stroke: #A80036; stroke-width: 1.5;" width="15" x="945" y="375"/><rect fill="#FEFECE" height="2" style="stroke: #A80036; stroke-width: 1.5;" width="4" x="943" y="377"/><rect fill="#FEFECE" height="2" style="stroke: #A80036; stroke-width: 1.5;" width="4" x="943" y="381"/><text fill="#000000" font-family="sans-serif" font-size="14" lengthAdjust="spacingAndGlyphs" textLength="188" x="752" y="404.5332">System views and procedures</text><!--MD5=[e1c2681f1bf69c1e026bc7e1b712dc20]
entity dwh_ep--><rect fill="#FEFECE" filter="url(#f1ggo73iaznhfk)" height="47.6094" style="stroke: #A80036; stroke-width: 1.5;" width="166" x="1000" y="370"/><rect fill="#FEFECE" height="10" style="stroke: #A80036; stroke-width: 1.5;" width="15" x="1146" y="375"/><rect fill="#FEFECE" height="2" style="stroke: #A80036; stroke-width: 1.5;" width="4" x="1144" y="377"/><rect fill="#FEFECE" height="2" style="stroke: #A80036; stroke-width: 1.5;" width="4" x="1144" y="381"/><text fill="#000000" font-family="sans-serif" font-size="14" lengthAdjust="spacingAndGlyphs" textLength="126" x="1015" y="404.5332">extended properties</text><!--MD5=[8cf78b7d573e3551926cf0c67999508a]
entity dwh_logging--><rect fill="#FEFECE" filter="url(#f1ggo73iaznhfk)" height="47.6094" style="stroke: #A80036; stroke-width: 1.5;" width="91" x="1555.5" y="544"/><rect fill="#FEFECE" height="10" style="stroke: #A80036; stroke-width: 1.5;" width="15" x="1626.5" y="549"/><rect fill="#FEFECE" height="2" style="stroke: #A80036; stroke-width: 1.5;" width="4" x="1624.5" y="551"/><rect fill="#FEFECE" height="2" style="stroke: #A80036; stroke-width: 1.5;" width="4" x="1624.5" y="555"/><text fill="#000000" font-family="sans-serif" font-size="14" lengthAdjust="spacingAndGlyphs" textLength="51" x="1570.5" y="578.5332">Logging</text><!--MD5=[a8bd4e343f5f5cd7b7516e2d2c4bcd18]
entity procedures 2--><rect fill="#FEFECE" filter="url(#f1ggo73iaznhfk)" height="47.6094" style="stroke: #A80036; stroke-width: 1.5;" width="124" x="1837" y="370"/><rect fill="#FEFECE" height="10" style="stroke: #A80036; stroke-width: 1.5;" width="15" x="1941" y="375"/><rect fill="#FEFECE" height="2" style="stroke: #A80036; stroke-width: 1.5;" width="4" x="1939" y="377"/><rect fill="#FEFECE" height="2" style="stroke: #A80036; stroke-width: 1.5;" width="4" x="1939" y="381"/><text fill="#000000" font-family="sans-serif" font-size="14" lengthAdjust="spacingAndGlyphs" textLength="84" x="1852" y="404.5332">procedures 2</text><!--MD5=[cc6bc06aea7837886e1634f096553365]
entity views 2--><rect fill="#FEFECE" filter="url(#f1ggo73iaznhfk)" height="47.6094" style="stroke: #A80036; stroke-width: 1.5;" width="86" x="1716" y="370"/><rect fill="#FEFECE" height="10" style="stroke: #A80036; stroke-width: 1.5;" width="15" x="1782" y="375"/><rect fill="#FEFECE" height="2" style="stroke: #A80036; stroke-width: 1.5;" width="4" x="1780" y="377"/><rect fill="#FEFECE" height="2" style="stroke: #A80036; stroke-width: 1.5;" width="4" x="1780" y="381"/><text fill="#000000" font-family="sans-serif" font-size="14" lengthAdjust="spacingAndGlyphs" textLength="46" x="1731" y="404.5332">views 2</text><!--MD5=[d5f6f8802b314bf7d002f5d1d7293c19]
entity tables 2--><rect fill="#FEFECE" filter="url(#f1ggo73iaznhfk)" height="47.6094" style="stroke: #A80036; stroke-width: 1.5;" width="90" x="1591" y="370"/><rect fill="#FEFECE" height="10" style="stroke: #A80036; stroke-width: 1.5;" width="15" x="1661" y="375"/><rect fill="#FEFECE" height="2" style="stroke: #A80036; stroke-width: 1.5;" width="4" x="1659" y="377"/><rect fill="#FEFECE" height="2" style="stroke: #A80036; stroke-width: 1.5;" width="4" x="1659" y="381"/><text fill="#000000" font-family="sans-serif" font-size="14" lengthAdjust="spacingAndGlyphs" textLength="50" x="1606" y="404.5332">tables 2</text><!--MD5=[f4bfc3472eeb69937865c733aff4f23c]
entity procedures--><rect fill="#FEFECE" filter="url(#f1ggo73iaznhfk)" height="47.6094" style="stroke: #A80036; stroke-width: 1.5;" width="112" x="1423" y="370"/><rect fill="#FEFECE" height="10" style="stroke: #A80036; stroke-width: 1.5;" width="15" x="1515" y="375"/><rect fill="#FEFECE" height="2" style="stroke: #A80036; stroke-width: 1.5;" width="4" x="1513" y="377"/><rect fill="#FEFECE" height="2" style="stroke: #A80036; stroke-width: 1.5;" width="4" x="1513" y="381"/><text fill="#000000" font-family="sans-serif" font-size="14" lengthAdjust="spacingAndGlyphs" textLength="72" x="1438" y="404.5332">procedures</text><!--MD5=[1affcf8a646183f59d752b76f98e02e7]
entity views--><rect fill="#FEFECE" filter="url(#f1ggo73iaznhfk)" height="47.6094" style="stroke: #A80036; stroke-width: 1.5;" width="74" x="1314" y="370"/><rect fill="#FEFECE" height="10" style="stroke: #A80036; stroke-width: 1.5;" width="15" x="1368" y="375"/><rect fill="#FEFECE" height="2" style="stroke: #A80036; stroke-width: 1.5;" width="4" x="1366" y="377"/><rect fill="#FEFECE" height="2" style="stroke: #A80036; stroke-width: 1.5;" width="4" x="1366" y="381"/><text fill="#000000" font-family="sans-serif" font-size="14" lengthAdjust="spacingAndGlyphs" textLength="34" x="1329" y="404.5332">views</text><!--MD5=[e970a58d16c049b3f74a0709cdb884f7]
entity tables--><rect fill="#FEFECE" filter="url(#f1ggo73iaznhfk)" height="47.6094" style="stroke: #A80036; stroke-width: 1.5;" width="78" x="1201" y="370"/><rect fill="#FEFECE" height="10" style="stroke: #A80036; stroke-width: 1.5;" width="15" x="1259" y="375"/><rect fill="#FEFECE" height="2" style="stroke: #A80036; stroke-width: 1.5;" width="4" x="1257" y="377"/><rect fill="#FEFECE" height="2" style="stroke: #A80036; stroke-width: 1.5;" width="4" x="1257" y="381"/><text fill="#000000" font-family="sans-serif" font-size="14" lengthAdjust="spacingAndGlyphs" textLength="38" x="1216" y="404.5332">tables</text><!--MD5=[af0130ed37a350d20981e23329ca1691]
link repo_syn to dwh_sys--><path d="M513.85,211.12 C585.46,249.75 728.9,327.13 803.49,367.37 " fill="none" id="repo_syn-&gt;dwh_sys" style="stroke: #A80036; stroke-width: 1.0;"/><polygon fill="#A80036" points="808.3,369.97,802.2752,362.1789,803.8986,367.5978,798.4796,369.2212,808.3,369.97" style="stroke: #A80036; stroke-width: 1.0;"/><text fill="#000000" font-family="sans-serif" font-size="13" lengthAdjust="spacingAndGlyphs" textLength="35" x="594" y="255.4951">link to</text><!--MD5=[c40414f2f3e8b37e1da06468326a8698]
link repo_object to dwh_ep--><path d="M686.63,189.28 C763.49,193.6 891.05,209.72 983,267 C1021.93,291.25 1052.06,336.23 1068.66,365.37 " fill="none" id="repo_object-dwh_ep" style="stroke: #A80036; stroke-width: 1.0;"/><polygon fill="#A80036" points="1071.21,369.91,1070.2733,360.1058,1068.7539,365.5548,1063.3049,364.0355,1071.21,369.91" style="stroke: #A80036; stroke-width: 1.0;"/><polygon fill="#A80036" points="681.19,188.99,689.972,193.4483,686.1834,189.2475,690.3841,185.4589,681.19,188.99" style="stroke: #A80036; stroke-width: 1.0;"/><text fill="#000000" font-family="sans-serif" font-size="13" lengthAdjust="spacingAndGlyphs" textLength="144" x="966" y="255.4951">correspond to each other</text><!--MD5=[10e5f47e5a570b380459e6dd07719e42]
link procedures 2 to dwh_logging--><path d="M1877.01,418.09 C1861.94,433.04 1840.95,452.21 1820,466 C1766.01,501.54 1697.5,530.94 1651.61,548.69 " fill="none" id="procedures 2-&gt;dwh_logging" style="stroke: #A80036; stroke-width: 1.0; stroke-dasharray: 7.0,7.0;"/><polygon fill="#A80036" points="1646.69,550.58,1656.5263,551.0765,1651.3556,548.7822,1653.6499,543.6115,1646.69,550.58" style="stroke: #A80036; stroke-width: 1.0;"/><text fill="#000000" font-family="sans-serif" font-size="13" lengthAdjust="spacingAndGlyphs" textLength="28" x="1804" y="488.4951">uses</text><!--MD5=[ebc0315875cc358173d25ccba54f963b]
link procedures to dwh_logging--><path d="M1495.45,418.2 C1517.8,449.7 1557.68,505.93 1581.5,539.51 " fill="none" id="procedures-&gt;dwh_logging" style="stroke: #A80036; stroke-width: 1.0; stroke-dasharray: 7.0,7.0;"/><polygon fill="#A80036" points="1584.61,543.9,1582.6851,534.2411,1581.7255,539.816,1576.1506,538.8563,1584.61,543.9" style="stroke: #A80036; stroke-width: 1.0;"/><text fill="#000000" font-family="sans-serif" font-size="13" lengthAdjust="spacingAndGlyphs" textLength="28" x="1548" y="488.4951">uses</text><!--MD5=[488cba5ad546fe731857bb59c287e934]
link procedure scripts to view scripts--><!--MD5=[0ce585043ac05f5223a487a64e6d2967]
link procedure scripts to table scripts--><!--MD5=[5f556998f336b63578476b24d12c70b7]
@startuml
skinparam componentStyle uml2

package "MS SQL Dev" as mssql_dev {
  database "Project A Repository DB" as project_a_repo_db {
    [Synonyms] as repo_syn
    [RepoObjects] as repo_object
    package "generated scripts for objects in DWH DB" as project_a_scripts {
      [procedure scripts]
      [view scripts]
      [table scripts]
    }
  }
  database  "Project A DWH DB" as project_a_dwh_db {
    [System views and procedures] as dwh_sys
    [extended properties] as dwh_ep
    frame "optional" {
      [Logging] as dwh_logging
    }
    package "objects, generated based on repo scripts" as project_a_generated_objects {
        [procedures 2]
        [views 2]
        [tables 2]
    }
    package "normal objects" as project_a_objects {
        [procedures]
        [views]
        [tables]
    }
  }
}


repo_syn - -> dwh_sys                      : link to
repo_object <- -> dwh_ep                   : correspond to each other
[procedures 2] ..> dwh_logging                : uses
[procedures] ..> dwh_logging                : uses


@enduml

PlantUML version 1.2019.12(Sun Nov 03 11:24:54 CET 2019)
(APACHE source distribution)
Java Runtime: Java(TM) SE Runtime Environment
JVM: Java HotSpot(TM) 64-Bit Server VM
Java Version: 1.8.0_281-b09
Operating System: Windows 10
Default Encoding: Cp1252
Language: de
Country: DE
--></g></svg>