<?xml version="1.0" encoding="UTF-8" standalone="no"?><svg xmlns="http://www.w3.org/2000/svg" xmlns:xlink="http://www.w3.org/1999/xlink" contentScriptType="application/ecmascript" contentStyleType="text/css" height="208px" preserveAspectRatio="none" style="width:572px;height:208px;" version="1.1" viewBox="0 0 572 208" width="572px" zoomAndPan="magnify"><defs/><g><text fill="#000000" font-family="sans-serif" font-size="12" lengthAdjust="spacingAndGlyphs" textLength="96" x="16" y="18.457">[repo].[usp_main]</text><text fill="#000000" font-family="sans-serif" font-size="12" lengthAdjust="spacingAndGlyphs" textLength="124" x="26" y="33.5508">[repo].[usp_sync_guid]</text><text fill="#000000" font-family="sans-serif" font-size="12" lengthAdjust="spacingAndGlyphs" textLength="196" x="36" y="48.6445">[repo].[usp_sync_guid_RepoObject]</text><text fill="#000000" font-family="sans-serif" font-size="12" lengthAdjust="spacingAndGlyphs" textLength="198" x="46" y="63.7383">[graph].[usp_PERSIST_RepoObject]</text><text fill="#000000" font-family="sans-serif" font-size="12" lengthAdjust="spacingAndGlyphs" textLength="237" x="46" y="78.832">[graph].[usp_PERSIST_ProcedureInstance]</text><text fill="#000000" font-family="sans-serif" font-size="12" lengthAdjust="spacingAndGlyphs" textLength="240" x="36" y="93.9258">[repo].[usp_sync_guid_RepoObjectColumn]</text><text fill="#000000" font-family="sans-serif" font-size="12" lengthAdjust="spacingAndGlyphs" textLength="242" x="46" y="109.0195">[graph].[usp_PERSIST_RepoObjectColumn]</text><text fill="#000000" font-family="sans-serif" font-size="12" lengthAdjust="spacingAndGlyphs" textLength="220" x="26" y="124.1133">[repo].[usp_update_Referencing_Count]</text><text fill="#000000" font-family="sans-serif" font-size="12" lengthAdjust="spacingAndGlyphs" textLength="165" x="26" y="139.207">[repo].[usp_index_inheritance]</text><text fill="#000000" font-family="sans-serif" font-size="12" lengthAdjust="spacingAndGlyphs" textLength="529" x="36" y="154.3008">[repo].[usp_PERSIST_IndexColumn_ReferencedReferencing_HasFullColumnsInReferencing_T]</text><text fill="#000000" font-family="sans-serif" font-size="12" lengthAdjust="spacingAndGlyphs" textLength="149" x="36" y="169.3945">[repo].[usp_Index_Settings]</text><text fill="#000000" font-family="sans-serif" font-size="12" lengthAdjust="spacingAndGlyphs" textLength="403" x="26" y="184.4883">[repo].[usp_RepoObjectColumn_update_RepoObjectColumn_column_id]</text><text fill="#000000" font-family="sans-serif" font-size="12" lengthAdjust="spacingAndGlyphs" textLength="301" x="26" y="199.582">[repo].[usp_GeneratorUsp_insert_update_persistence]</text><rect fill="none" height="2" style="stroke: #888888; stroke-width: 1.0;" width="2" x="9" y="12.5469"/><rect fill="none" height="2" style="stroke: #888888; stroke-width: 1.0;" width="2" x="19" y="27.6406"/><line style="stroke: #888888; stroke-width: 1.0;" x1="10" x2="10" y1="15.5469" y2="28.6406"/><line style="stroke: #888888; stroke-width: 1.0;" x1="10" x2="18" y1="28.6406" y2="28.6406"/><rect fill="none" height="2" style="stroke: #888888; stroke-width: 1.0;" width="2" x="29" y="42.7344"/><line style="stroke: #888888; stroke-width: 1.0;" x1="20" x2="20" y1="30.6406" y2="43.7344"/><line style="stroke: #888888; stroke-width: 1.0;" x1="20" x2="28" y1="43.7344" y2="43.7344"/><line style="stroke: #888888; stroke-width: 1.0;" x1="30" x2="30" y1="45.7344" y2="58.8281"/><line style="stroke: #888888; stroke-width: 1.0;" x1="30" x2="38" y1="58.8281" y2="58.8281"/><line style="stroke: #888888; stroke-width: 1.0;" x1="30" x2="30" y1="45.7344" y2="73.9219"/><line style="stroke: #888888; stroke-width: 1.0;" x1="30" x2="38" y1="73.9219" y2="73.9219"/><rect fill="none" height="2" style="stroke: #888888; stroke-width: 1.0;" width="2" x="29" y="88.0156"/><line style="stroke: #888888; stroke-width: 1.0;" x1="20" x2="20" y1="30.6406" y2="89.0156"/><line style="stroke: #888888; stroke-width: 1.0;" x1="20" x2="28" y1="89.0156" y2="89.0156"/><line style="stroke: #888888; stroke-width: 1.0;" x1="30" x2="30" y1="91.0156" y2="104.1094"/><line style="stroke: #888888; stroke-width: 1.0;" x1="30" x2="38" y1="104.1094" y2="104.1094"/><line style="stroke: #888888; stroke-width: 1.0;" x1="10" x2="10" y1="15.5469" y2="119.2031"/><line style="stroke: #888888; stroke-width: 1.0;" x1="10" x2="18" y1="119.2031" y2="119.2031"/><rect fill="none" height="2" style="stroke: #888888; stroke-width: 1.0;" width="2" x="19" y="133.2969"/><line style="stroke: #888888; stroke-width: 1.0;" x1="10" x2="10" y1="15.5469" y2="134.2969"/><line style="stroke: #888888; stroke-width: 1.0;" x1="10" x2="18" y1="134.2969" y2="134.2969"/><line style="stroke: #888888; stroke-width: 1.0;" x1="20" x2="20" y1="136.2969" y2="149.3906"/><line style="stroke: #888888; stroke-width: 1.0;" x1="20" x2="28" y1="149.3906" y2="149.3906"/><line style="stroke: #888888; stroke-width: 1.0;" x1="20" x2="20" y1="136.2969" y2="164.4844"/><line style="stroke: #888888; stroke-width: 1.0;" x1="20" x2="28" y1="164.4844" y2="164.4844"/><line style="stroke: #888888; stroke-width: 1.0;" x1="10" x2="10" y1="15.5469" y2="179.5781"/><line style="stroke: #888888; stroke-width: 1.0;" x1="10" x2="18" y1="179.5781" y2="179.5781"/><line style="stroke: #888888; stroke-width: 1.0;" x1="10" x2="10" y1="15.5469" y2="194.6719"/><line style="stroke: #888888; stroke-width: 1.0;" x1="10" x2="18" y1="194.6719" y2="194.6719"/></g></svg>