<?xml version="1.0" encoding="UTF-8" standalone="no"?><svg xmlns="http://www.w3.org/2000/svg" xmlns:xlink="http://www.w3.org/1999/xlink" contentScriptType="application/ecmascript" contentStyleType="text/css" height="371px" preserveAspectRatio="none" style="width:338px;height:371px;" version="1.1" viewBox="0 0 338 371" width="338px" zoomAndPan="magnify"><defs/><g><text fill="#000000" font-family="sans-serif" font-size="18" lengthAdjust="spacingAndGlyphs" textLength="273" x="38.5" y="18.6855">DWH B Development - Containers</text><!--MD5=[255faa2be7dd1589dace60483080b12d]
cluster DWH B Development\n[Software System]--><polygon fill="#FFFFFF" points="22,46.6406,173,46.6406,180,87.8594,316,87.8594,316,359.6406,22,359.6406,22,46.6406" style="stroke: #000000; stroke-width: 1.5;"/><line style="stroke: #000000; stroke-width: 1.5;" x1="22" x2="180" y1="87.8594" y2="87.8594"/><text fill="#000000" font-family="sans-serif" font-size="14" font-weight="bold" lengthAdjust="spacingAndGlyphs" textLength="145" x="26" y="63.1738">DWH B Development</text><text fill="#000000" font-family="sans-serif" font-size="14" font-weight="bold" lengthAdjust="spacingAndGlyphs" textLength="126" x="35.5" y="80.7832">[Software System]</text><!--MD5=[dc00b6f0bfcb3e33cce0c0c30000e56b]
entity 17--><path d="M70.5,110.6406 C70.5,100.6406 169,100.6406 169,100.6406 C169,100.6406 267.5,100.6406 267.5,110.6406 L267.5,172.4688 C267.5,182.4688 169,182.4688 169,182.4688 C169,182.4688 70.5,182.4688 70.5,172.4688 L70.5,110.6406 " fill="#DDDDDD" style="stroke: #9A9A9A; stroke-width: 1.5;"/><path d="M70.5,110.6406 C70.5,120.6406 169,120.6406 169,120.6406 C169,120.6406 267.5,120.6406 267.5,110.6406 " fill="none" style="stroke: #9A9A9A; stroke-width: 1.5;"/><text fill="#000000" font-family="sans-serif" font-size="16" font-weight="bold" lengthAdjust="spacingAndGlyphs" textLength="177" x="80.5" y="141.25">DWH db Development (</text><text fill="#000000" font-family="sans-serif" font-size="16" font-weight="bold" lengthAdjust="spacingAndGlyphs" textLength="75" x="131.5" y="161.375">Project B)</text><text fill="#000000" font-family="sans-serif" font-size="10" lengthAdjust="spacingAndGlyphs" textLength="102" x="118" y="175.2715">[Container: Database]</text><!--MD5=[fad6a9c1e4f80769a7fea8e2093188d9]
entity 5--><path d="M63,291.6406 C63,281.6406 169,281.6406 169,281.6406 C169,281.6406 275,281.6406 275,291.6406 L275,333.3438 C275,343.3438 169,343.3438 169,343.3438 C169,343.3438 63,343.3438 63,333.3438 L63,291.6406 " fill="#DDDDDD" style="stroke: #9A9A9A; stroke-width: 1.5;"/><path d="M63,291.6406 C63,301.6406 169,301.6406 169,301.6406 C169,301.6406 275,301.6406 275,291.6406 " fill="none" style="stroke: #9A9A9A; stroke-width: 1.5;"/><text fill="#000000" font-family="sans-serif" font-size="16" font-weight="bold" lengthAdjust="spacingAndGlyphs" textLength="192" x="73" y="322.25">Repository db (Project B)</text><text fill="#000000" font-family="sans-serif" font-size="10" lengthAdjust="spacingAndGlyphs" textLength="102" x="118" y="336.1465">[Container: Database]</text><!--MD5=[32e0e19703e482a1cb6eec8da929eee3]
link 17 to 5--><path d="M94.46,182.7606 C84.61,191.2906 75.9,201.2406 70,212.6406 C62.03,228.0306 61.49,236.5406 70,251.6406 C75.87,262.0606 84.36,270.8806 93.93,278.2706 " fill="none" id="17-&gt;5" style="stroke: #707070; stroke-width: 1.0; stroke-dasharray: 7.0,7.0;"/><polygon fill="#707070" points="98.1,281.3606,93.2314,272.7993,94.0762,278.3927,88.4827,279.2374,98.1,281.3606" style="stroke: #707070; stroke-width: 1.0;"/><text fill="#000000" font-family="sans-serif" font-size="10" lengthAdjust="spacingAndGlyphs" textLength="57" x="87.5" y="224.0215">RepoObject</text><text fill="#000000" font-family="sans-serif" font-size="10" lengthAdjust="spacingAndGlyphs" textLength="74" x="79" y="236.5996">correspond with</text><text fill="#000000" font-family="sans-serif" font-size="10" lengthAdjust="spacingAndGlyphs" textLength="93" x="71" y="249.1777">extended properties</text><!--MD5=[269561589d4f1f8d1cf9e2fd8c643996]
link 5 to 17--><path d="M169,281.3906 C169,255.3506 169,217.3806 169,187.7506 " fill="none" id="5-&gt;17" style="stroke: #707070; stroke-width: 1.0; stroke-dasharray: 7.0,7.0;"/><polygon fill="#707070" points="169,182.6906,165,191.6906,169,187.6906,173,191.6906,169,182.6906" style="stroke: #707070; stroke-width: 1.0;"/><text fill="#000000" font-family="sans-serif" font-size="10" lengthAdjust="spacingAndGlyphs" textLength="79" x="174" y="230.0215">Synonyms link to</text><text fill="#000000" font-family="sans-serif" font-size="10" lengthAdjust="spacingAndGlyphs" textLength="90" x="170" y="242.5996">DWH System Views</text><!--MD5=[c92ae78fbc6e3ebc95674e533704d43c]
@startuml(id=DWHBDevelopment-Container)
title DWH B Development - Containers

skinparam {
  shadowing false
  arrowFontSize 10
  defaultTextAlignment center
  wrapWidth 200
  maxMessageSize 100
}
hide stereotype
top to bottom direction
skinparam database<<5>> {
  BackgroundColor #dddddd
  FontColor #000000
  BorderColor #9A9A9A
}
skinparam database<<17>> {
  BackgroundColor #dddddd
  FontColor #000000
  BorderColor #9A9A9A
}
package "DWH B Development\n[Software System]" {
  database "==DWH db Development (Project B)\n<size:10>[Container: Database]</size>" <<17>> as 17
  database "==Repository db (Project B)\n<size:10>[Container: Database]</size>" <<5>> as 5
}
17 .[#707070].> 5 : "RepoObject correspond with extended properties"
5 .[#707070].> 17 : "Synonyms link to DWH System Views"
@enduml

PlantUML version 1.2019.12(Sun Nov 03 11:24:54 CET 2019)
(APACHE source distribution)
Java Runtime: Java(TM) SE Runtime Environment
JVM: Java HotSpot(TM) 64-Bit Server VM
Java Version: 1.8.0_281-b09
Operating System: Windows 10
Default Encoding: Cp1252
Language: de
Country: DE
--></g></svg>