<?xml version="1.0" encoding="UTF-8" standalone="no"?><svg xmlns="http://www.w3.org/2000/svg" xmlns:xlink="http://www.w3.org/1999/xlink" contentScriptType="application/ecmascript" contentStyleType="text/css" height="190px" preserveAspectRatio="none" style="width:489px;height:190px;" version="1.1" viewBox="0 0 489 190" width="489px" zoomAndPan="magnify"><defs/><g><text fill="#000000" font-family="sans-serif" font-size="18" lengthAdjust="spacingAndGlyphs" textLength="332" x="84.5" y="18.6855">DataHandwerk Development - Containers</text><!--MD5=[92de769956cae57c6906e1d6fb1d9e98]
cluster DataHandwerk Development\n[Software System]--><polygon fill="#FFFFFF" points="22,46.6406,227,46.6406,234,87.8594,467,87.8594,467,178.6406,22,178.6406,22,46.6406" style="stroke: #000000; stroke-width: 1.5;"/><line style="stroke: #000000; stroke-width: 1.5;" x1="22" x2="234" y1="87.8594" y2="87.8594"/><text fill="#000000" font-family="sans-serif" font-size="14" font-weight="bold" lengthAdjust="spacingAndGlyphs" textLength="199" x="26" y="63.1738">DataHandwerk Development</text><text fill="#000000" font-family="sans-serif" font-size="14" font-weight="bold" lengthAdjust="spacingAndGlyphs" textLength="126" x="62.5" y="80.7832">[Software System]</text><!--MD5=[cbe81bb5a050b34488dc8ac73fc39a81]
entity 27--><path d="M285,110.6406 C285,100.6406 368,100.6406 368,100.6406 C368,100.6406 451,100.6406 451,110.6406 L451,152.3438 C451,162.3438 368,162.3438 368,162.3438 C368,162.3438 285,162.3438 285,152.3438 L285,110.6406 " fill="#DDDDDD" style="stroke: #9A9A9A; stroke-width: 1.5;"/><path d="M285,110.6406 C285,120.6406 368,120.6406 368,120.6406 C368,120.6406 451,120.6406 451,110.6406 " fill="none" style="stroke: #9A9A9A; stroke-width: 1.5;"/><text fill="#000000" font-family="sans-serif" font-size="16" font-weight="bold" lengthAdjust="spacingAndGlyphs" textLength="146" x="295" y="141.25">DWH db (Project A)</text><text fill="#000000" font-family="sans-serif" font-size="10" lengthAdjust="spacingAndGlyphs" textLength="102" x="317" y="155.1465">[Container: Database]</text><!--MD5=[8682619d0b3ec5a366d9ada435446ff3]
entity 26--><path d="M38.5,110.6406 C38.5,100.6406 144,100.6406 144,100.6406 C144,100.6406 249.5,100.6406 249.5,110.6406 L249.5,152.3438 C249.5,162.3438 144,162.3438 144,162.3438 C144,162.3438 38.5,162.3438 38.5,152.3438 L38.5,110.6406 " fill="#DDDDDD" style="stroke: #9A9A9A; stroke-width: 1.5;"/><path d="M38.5,110.6406 C38.5,120.6406 144,120.6406 144,120.6406 C144,120.6406 249.5,120.6406 249.5,110.6406 " fill="none" style="stroke: #9A9A9A; stroke-width: 1.5;"/><text fill="#000000" font-family="sans-serif" font-size="16" font-weight="bold" lengthAdjust="spacingAndGlyphs" textLength="191" x="48.5" y="141.25">Repository db (Project A)</text><text fill="#000000" font-family="sans-serif" font-size="10" lengthAdjust="spacingAndGlyphs" textLength="102" x="93" y="155.1465">[Container: Database]</text><!--MD5=[a06332113fd67fe2a395200f932be1df]
@startuml(id=DataHandwerkDevelopment-Container)
title DataHandwerk Development - Containers

skinparam {
  shadowing false
  arrowFontSize 10
  defaultTextAlignment center
  wrapWidth 200
  maxMessageSize 100
}
hide stereotype
top to bottom direction
skinparam database<<26>> {
  BackgroundColor #dddddd
  FontColor #000000
  BorderColor #9A9A9A
}
skinparam database<<27>> {
  BackgroundColor #dddddd
  FontColor #000000
  BorderColor #9A9A9A
}
package "DataHandwerk Development\n[Software System]" {
  database "==DWH db (Project A)\n<size:10>[Container: Database]</size>" <<27>> as 27
  database "==Repository db (Project A)\n<size:10>[Container: Database]</size>" <<26>> as 26
}
@enduml

PlantUML version 1.2019.12(Sun Nov 03 11:24:54 CET 2019)
(APACHE source distribution)
Java Runtime: Java(TM) SE Runtime Environment
JVM: Java HotSpot(TM) 64-Bit Server VM
Java Version: 1.8.0_281-b09
Operating System: Windows 10
Default Encoding: Cp1252
Language: de
Country: DE
--></g></svg>