<?xml version="1.0" encoding="UTF-8" standalone="no"?><svg xmlns="http://www.w3.org/2000/svg" xmlns:xlink="http://www.w3.org/1999/xlink" contentScriptType="application/ecmascript" contentStyleType="text/css" height="371px" preserveAspectRatio="none" style="width:405px;height:371px;" version="1.1" viewBox="0 0 405 371" width="405px" zoomAndPan="magnify"><defs/><g><text fill="#000000" font-family="sans-serif" font-size="18" lengthAdjust="spacingAndGlyphs" textLength="273" x="72" y="18.6855">DWH B Development - Containers</text><!--MD5=[255faa2be7dd1589dace60483080b12d]
cluster DWH B Development\n[Software System]--><polygon fill="#FFFFFF" points="22,46.6406,173,46.6406,180,87.8594,383,87.8594,383,359.6406,22,359.6406,22,46.6406" style="stroke: #000000; stroke-width: 1.5;"/><line style="stroke: #000000; stroke-width: 1.5;" x1="22" x2="180" y1="87.8594" y2="87.8594"/><text fill="#000000" font-family="sans-serif" font-size="14" font-weight="bold" lengthAdjust="spacingAndGlyphs" textLength="145" x="26" y="63.1738">DWH B Development</text><text fill="#000000" font-family="sans-serif" font-size="14" font-weight="bold" lengthAdjust="spacingAndGlyphs" textLength="126" x="35.5" y="80.7832">[Software System]</text><!--MD5=[dc00b6f0bfcb3e33cce0c0c30000e56b]
entity 17--><path d="M169.5,110.6406 C169.5,100.6406 268,100.6406 268,100.6406 C268,100.6406 366.5,100.6406 366.5,110.6406 L366.5,172.4688 C366.5,182.4688 268,182.4688 268,182.4688 C268,182.4688 169.5,182.4688 169.5,172.4688 L169.5,110.6406 " fill="#DDDDDD" style="stroke: #9A9A9A; stroke-width: 1.5;"/><path d="M169.5,110.6406 C169.5,120.6406 268,120.6406 268,120.6406 C268,120.6406 366.5,120.6406 366.5,110.6406 " fill="none" style="stroke: #9A9A9A; stroke-width: 1.5;"/><text fill="#000000" font-family="sans-serif" font-size="16" font-weight="bold" lengthAdjust="spacingAndGlyphs" textLength="177" x="179.5" y="141.25">DWH db Development (</text><text fill="#000000" font-family="sans-serif" font-size="16" font-weight="bold" lengthAdjust="spacingAndGlyphs" textLength="75" x="230.5" y="161.375">Project B)</text><text fill="#000000" font-family="sans-serif" font-size="10" lengthAdjust="spacingAndGlyphs" textLength="102" x="217" y="175.2715">[Container: Database]</text><!--MD5=[fd8726c1533af164f5322e0f7898e501]
entity 21--><rect fill="#DDDDDD" height="52.7031" style="stroke: #9A9A9A; stroke-width: 1.5;" width="96" x="38" y="115.1406"/><text fill="#000000" font-family="sans-serif" font-size="16" font-weight="bold" lengthAdjust="spacingAndGlyphs" textLength="28" x="72" y="141.75">GUI</text><text fill="#000000" font-family="sans-serif" font-size="10" lengthAdjust="spacingAndGlyphs" textLength="76" x="48" y="155.6465">[Container: GUI]</text><!--MD5=[fad6a9c1e4f80769a7fea8e2093188d9]
entity 5--><path d="M38,291.6406 C38,281.6406 144,281.6406 144,281.6406 C144,281.6406 250,281.6406 250,291.6406 L250,333.3438 C250,343.3438 144,343.3438 144,343.3438 C144,343.3438 38,343.3438 38,333.3438 L38,291.6406 " fill="#DDDDDD" style="stroke: #9A9A9A; stroke-width: 1.5;"/><path d="M38,291.6406 C38,301.6406 144,301.6406 144,301.6406 C144,301.6406 250,301.6406 250,291.6406 " fill="none" style="stroke: #9A9A9A; stroke-width: 1.5;"/><text fill="#000000" font-family="sans-serif" font-size="16" font-weight="bold" lengthAdjust="spacingAndGlyphs" textLength="192" x="48" y="322.25">Repository db (Project B)</text><text fill="#000000" font-family="sans-serif" font-size="10" lengthAdjust="spacingAndGlyphs" textLength="102" x="93" y="336.1465">[Container: Database]</text><!--MD5=[32e0e19703e482a1cb6eec8da929eee3]
link 17 to 5--><path d="M169.2,179.5706 C156.38,188.4706 144.95,199.3706 137,212.6406 C125.65,231.5806 127.41,256.3606 132.01,276.3906 " fill="none" id="17-&gt;5" style="stroke: #707070; stroke-width: 1.0; stroke-dasharray: 7.0,7.0;"/><polygon fill="#707070" points="133.23,281.3806,134.9546,271.6839,132.0308,276.5266,127.1881,273.6027,133.23,281.3806" style="stroke: #707070; stroke-width: 1.0;"/><text fill="#000000" font-family="sans-serif" font-size="10" lengthAdjust="spacingAndGlyphs" textLength="57" x="154.5" y="224.0215">RepoObject</text><text fill="#000000" font-family="sans-serif" font-size="10" lengthAdjust="spacingAndGlyphs" textLength="74" x="146" y="236.5996">correspond with</text><text fill="#000000" font-family="sans-serif" font-size="10" lengthAdjust="spacingAndGlyphs" textLength="93" x="138" y="249.1777">extended properties</text><!--MD5=[269561589d4f1f8d1cf9e2fd8c643996]
link 5 to 17--><path d="M203.67,281.6106 C215.73,273.2806 227.35,263.2706 236,251.6406 C249.78,233.1006 257.65,208.7206 262.13,187.7106 " fill="none" id="5-&gt;17" style="stroke: #707070; stroke-width: 1.0; stroke-dasharray: 7.0,7.0;"/><polygon fill="#707070" points="263.14,182.7306,257.4211,190.749,262.1402,187.6296,265.2596,192.3487,263.14,182.7306" style="stroke: #707070; stroke-width: 1.0;"/><text fill="#000000" font-family="sans-serif" font-size="10" lengthAdjust="spacingAndGlyphs" textLength="79" x="260" y="230.0215">Synonyms link to</text><text fill="#000000" font-family="sans-serif" font-size="10" lengthAdjust="spacingAndGlyphs" textLength="90" x="256" y="242.5996">DWH System Views</text><!--MD5=[4222a7cf03282a3b4af70fa433fb5fbe]
link 21 to 5--><path d="M76.23,168.5206 C69.22,191.4006 62.93,225.1606 75,251.6406 C79.47,261.4506 86.42,270.2706 94.22,277.9506 " fill="none" id="21-&gt;5" style="stroke: #707070; stroke-width: 1.0; stroke-dasharray: 7.0,7.0;"/><polygon fill="#707070" points="98.11,281.6206,94.3155,272.5321,94.4757,278.1867,88.8211,278.3469,98.11,281.6206" style="stroke: #707070; stroke-width: 1.0;"/><text fill="#000000" font-family="sans-serif" font-size="10" lengthAdjust="spacingAndGlyphs" textLength="20" x="76" y="236.5215">uses</text><!--MD5=[e18835d0b499c0448f403706389562a8]
@startuml(id=DWHBDevelopment-Container)
title DWH B Development - Containers

skinparam {
  shadowing false
  arrowFontSize 10
  defaultTextAlignment center
  wrapWidth 200
  maxMessageSize 100
}
hide stereotype
top to bottom direction
skinparam database<<5>> {
  BackgroundColor #dddddd
  FontColor #000000
  BorderColor #9A9A9A
}
skinparam database<<17>> {
  BackgroundColor #dddddd
  FontColor #000000
  BorderColor #9A9A9A
}
skinparam rectangle<<21>> {
  BackgroundColor #dddddd
  FontColor #000000
  BorderColor #9A9A9A
}
package "DWH B Development\n[Software System]" {
  database "==DWH db Development (Project B)\n<size:10>[Container: Database]</size>" <<17>> as 17
  rectangle "==GUI\n<size:10>[Container: GUI]</size>" <<21>> as 21
  database "==Repository db (Project B)\n<size:10>[Container: Database]</size>" <<5>> as 5
}
17 .[#707070].> 5 : "RepoObject correspond with extended properties"
21 .[#707070].> 5 : "uses"
5 .[#707070].> 17 : "Synonyms link to DWH System Views"
@enduml

PlantUML version 1.2019.12(Sun Nov 03 11:24:54 CET 2019)
(APACHE source distribution)
Java Runtime: Java(TM) SE Runtime Environment
JVM: Java HotSpot(TM) 64-Bit Server VM
Java Version: 1.8.0_281-b09
Operating System: Windows 10
Default Encoding: Cp1252
Language: de
Country: DE
--></g></svg>