<?xml version="1.0" encoding="UTF-8" standalone="no"?><svg xmlns="http://www.w3.org/2000/svg" xmlns:xlink="http://www.w3.org/1999/xlink" contentScriptType="application/ecmascript" contentStyleType="text/css" height="609px" preserveAspectRatio="none" style="width:1732px;height:609px;" version="1.1" viewBox="0 0 1732 609" width="1732px" zoomAndPan="magnify"><defs><filter height="300%" id="fz9ze9iqzu93u" width="300%" x="-1" y="-1"><feGaussianBlur result="blurOut" stdDeviation="2.0"/><feColorMatrix in="blurOut" result="blurOut2" type="matrix" values="0 0 0 0 0 0 0 0 0 0 0 0 0 0 0 0 0 0 .4 0"/><feOffset dx="4.0" dy="4.0" in="blurOut2" result="blurOut3"/><feBlend in="SourceGraphic" in2="blurOut3" mode="normal"/></filter></defs><g><!--MD5=[ab78c05ea8adea51e125654302aa979f]
cluster ms_sql--><polygon fill="#FFFFFF" filter="url(#fz9ze9iqzu93u)" points="932,32,992,32,999,55.6094,1710,55.6094,1710,486,932,486,932,32" style="stroke: #000000; stroke-width: 1.5;"/><line style="stroke: #000000; stroke-width: 1.5;" x1="932" x2="999" y1="55.6094" y2="55.6094"/><text fill="#000000" font-family="sans-serif" font-size="14" font-weight="bold" lengthAdjust="spacingAndGlyphs" textLength="54" x="936" y="48.5332">MS SQL</text><!--MD5=[61f8c2d2626b9b5131970eb36e91dbd2]
cluster repo_db--><path d="M972,110 C972,100 1057,100 1057,100 C1057,100 1142,100 1142,110 L1142,323 C1142,333 1057,333 1057,333 C1057,333 972,333 972,323 L972,110 " fill="#FFFFFF" filter="url(#fz9ze9iqzu93u)" style="stroke: #000000; stroke-width: 1.5;"/><path d="M972,110 C972,120 1057,120 1057,120 C1057,120 1142,120 1142,110 " fill="none" style="stroke: #000000; stroke-width: 1.5;"/><text fill="#000000" font-family="sans-serif" font-size="14" font-weight="bold" lengthAdjust="spacingAndGlyphs" textLength="100" x="1007" y="136.5332">Repository DB</text><!--MD5=[5dd350d9ae29b08b992c73cba4760ef7]
cluster dwh_db--><path d="M1394,110 C1394,100 1532,100 1532,100 C1532,100 1670,100 1670,110 L1670,436 C1670,446 1532,446 1532,446 C1532,446 1394,446 1394,436 L1394,110 " fill="#FFFFFF" filter="url(#fz9ze9iqzu93u)" style="stroke: #000000; stroke-width: 1.5;"/><path d="M1394,110 C1394,120 1532,120 1532,120 C1532,120 1670,120 1670,110 " fill="none" style="stroke: #000000; stroke-width: 1.5;"/><text fill="#000000" font-family="sans-serif" font-size="14" font-weight="bold" lengthAdjust="spacingAndGlyphs" textLength="57" x="1503.5" y="136.5332">DWH DB</text><!--MD5=[a8cc8ead5f4e8fb0cc2aa927345ef930]
cluster optional--><rect fill="#FFFFFF" filter="url(#fz9ze9iqzu93u)" height="100" style="stroke: #000000; stroke-width: 1.5;" width="123" x="1470.5" y="306"/><path d="M1537.5,307 L1537.5,316.6094 L1527.5,326.6094 L1470.5,326.6094 " fill="none" style="stroke: #000000; stroke-width: 1.5;"/><text fill="#000000" font-family="sans-serif" font-size="14" font-weight="bold" lengthAdjust="spacingAndGlyphs" textLength="57" x="1473.5" y="321.5332">optional</text><!--MD5=[723421a1f41f0b73ef4150cc60ad9a2a]
cluster scripts--><polygon fill="#FFFFFF" filter="url(#fz9ze9iqzu93u)" points="478.5,296,642.5,296,649.5,319.6094,652.5,319.6094,652.5,597,478.5,597,478.5,296" style="stroke: #000000; stroke-width: 1.5;"/><line style="stroke: #000000; stroke-width: 1.5;" x1="478.5" x2="649.5" y1="319.6094" y2="319.6094"/><text fill="#000000" font-family="sans-serif" font-size="14" font-weight="bold" lengthAdjust="spacingAndGlyphs" textLength="158" x="482.5" y="312.5332">generated SQL Scripts</text><!--MD5=[7254cebad17c66544f24318b5fd3ad22]
cluster gui_tools--><polygon fill="#FFFFFF" filter="url(#fz9ze9iqzu93u)" points="22,137,92,137,99,160.6094,226,160.6094,226,289,22,289,22,137" style="stroke: #000000; stroke-width: 1.5;"/><line style="stroke: #000000; stroke-width: 1.5;" x1="22" x2="99" y1="160.6094" y2="160.6094"/><text fill="#000000" font-family="sans-serif" font-size="14" font-weight="bold" lengthAdjust="spacingAndGlyphs" textLength="64" x="26" y="153.5332">GUI tools</text><!--MD5=[f3cc169ee3ad5a1601dc7c8c5ce8f74f]
entity repo_syn--><rect fill="#FEFECE" filter="url(#fz9ze9iqzu93u)" height="47.6094" style="stroke: #A80036; stroke-width: 1.5;" width="105" x="1004.5" y="242"/><rect fill="#FEFECE" height="10" style="stroke: #A80036; stroke-width: 1.5;" width="15" x="1089.5" y="247"/><rect fill="#FEFECE" height="2" style="stroke: #A80036; stroke-width: 1.5;" width="4" x="1087.5" y="249"/><rect fill="#FEFECE" height="2" style="stroke: #A80036; stroke-width: 1.5;" width="4" x="1087.5" y="253"/><text fill="#000000" font-family="sans-serif" font-size="14" lengthAdjust="spacingAndGlyphs" textLength="65" x="1019.5" y="276.5332">Synonyms</text><!--MD5=[ee0b690540bf29014d25f65e14accb12]
entity repo_object--><rect fill="#FEFECE" filter="url(#fz9ze9iqzu93u)" height="47.6094" style="stroke: #A80036; stroke-width: 1.5;" width="122" x="996" y="159"/><rect fill="#FEFECE" height="10" style="stroke: #A80036; stroke-width: 1.5;" width="15" x="1098" y="164"/><rect fill="#FEFECE" height="2" style="stroke: #A80036; stroke-width: 1.5;" width="4" x="1096" y="166"/><rect fill="#FEFECE" height="2" style="stroke: #A80036; stroke-width: 1.5;" width="4" x="1096" y="170"/><text fill="#000000" font-family="sans-serif" font-size="14" lengthAdjust="spacingAndGlyphs" textLength="82" x="1011" y="193.5332">RepoObjects</text><!--MD5=[274b4989e7a418ce5213e9232dc0a52b]
entity dwh_sys--><rect fill="#FEFECE" filter="url(#fz9ze9iqzu93u)" height="47.6094" style="stroke: #A80036; stroke-width: 1.5;" width="228" x="1418" y="242"/><rect fill="#FEFECE" height="10" style="stroke: #A80036; stroke-width: 1.5;" width="15" x="1626" y="247"/><rect fill="#FEFECE" height="2" style="stroke: #A80036; stroke-width: 1.5;" width="4" x="1624" y="249"/><rect fill="#FEFECE" height="2" style="stroke: #A80036; stroke-width: 1.5;" width="4" x="1624" y="253"/><text fill="#000000" font-family="sans-serif" font-size="14" lengthAdjust="spacingAndGlyphs" textLength="188" x="1433" y="276.5332">System views and procedures</text><!--MD5=[e1c2681f1bf69c1e026bc7e1b712dc20]
entity dwh_ep--><rect fill="#FEFECE" filter="url(#fz9ze9iqzu93u)" height="47.6094" style="stroke: #A80036; stroke-width: 1.5;" width="166" x="1449" y="159"/><rect fill="#FEFECE" height="10" style="stroke: #A80036; stroke-width: 1.5;" width="15" x="1595" y="164"/><rect fill="#FEFECE" height="2" style="stroke: #A80036; stroke-width: 1.5;" width="4" x="1593" y="166"/><rect fill="#FEFECE" height="2" style="stroke: #A80036; stroke-width: 1.5;" width="4" x="1593" y="170"/><text fill="#000000" font-family="sans-serif" font-size="14" lengthAdjust="spacingAndGlyphs" textLength="126" x="1464" y="193.5332">extended properties</text><!--MD5=[8cf78b7d573e3551926cf0c67999508a]
entity dwh_logging--><rect fill="#FEFECE" filter="url(#fz9ze9iqzu93u)" height="47.6094" style="stroke: #A80036; stroke-width: 1.5;" width="91" x="1486.5" y="342"/><rect fill="#FEFECE" height="10" style="stroke: #A80036; stroke-width: 1.5;" width="15" x="1557.5" y="347"/><rect fill="#FEFECE" height="2" style="stroke: #A80036; stroke-width: 1.5;" width="4" x="1555.5" y="349"/><rect fill="#FEFECE" height="2" style="stroke: #A80036; stroke-width: 1.5;" width="4" x="1555.5" y="353"/><text fill="#000000" font-family="sans-serif" font-size="14" lengthAdjust="spacingAndGlyphs" textLength="51" x="1501.5" y="376.5332">Logging</text><!--MD5=[e970a58d16c049b3f74a0709cdb884f7]
entity tables--><rect fill="#FEFECE" filter="url(#fz9ze9iqzu93u)" height="47.6094" style="stroke: #A80036; stroke-width: 1.5;" width="78" x="526.5" y="359"/><rect fill="#FEFECE" height="10" style="stroke: #A80036; stroke-width: 1.5;" width="15" x="584.5" y="364"/><rect fill="#FEFECE" height="2" style="stroke: #A80036; stroke-width: 1.5;" width="4" x="582.5" y="366"/><rect fill="#FEFECE" height="2" style="stroke: #A80036; stroke-width: 1.5;" width="4" x="582.5" y="370"/><text fill="#000000" font-family="sans-serif" font-size="14" lengthAdjust="spacingAndGlyphs" textLength="38" x="541.5" y="393.5332">tables</text><!--MD5=[f4bfc3472eeb69937865c733aff4f23c]
entity procedures--><rect fill="#FEFECE" filter="url(#fz9ze9iqzu93u)" height="47.6094" style="stroke: #A80036; stroke-width: 1.5;" width="112" x="509.5" y="442"/><rect fill="#FEFECE" height="10" style="stroke: #A80036; stroke-width: 1.5;" width="15" x="601.5" y="447"/><rect fill="#FEFECE" height="2" style="stroke: #A80036; stroke-width: 1.5;" width="4" x="599.5" y="449"/><rect fill="#FEFECE" height="2" style="stroke: #A80036; stroke-width: 1.5;" width="4" x="599.5" y="453"/><text fill="#000000" font-family="sans-serif" font-size="14" lengthAdjust="spacingAndGlyphs" textLength="72" x="524.5" y="476.5332">procedures</text><!--MD5=[1affcf8a646183f59d752b76f98e02e7]
entity views--><rect fill="#FEFECE" filter="url(#fz9ze9iqzu93u)" height="47.6094" style="stroke: #A80036; stroke-width: 1.5;" width="74" x="528.5" y="525"/><rect fill="#FEFECE" height="10" style="stroke: #A80036; stroke-width: 1.5;" width="15" x="582.5" y="530"/><rect fill="#FEFECE" height="2" style="stroke: #A80036; stroke-width: 1.5;" width="4" x="580.5" y="532"/><rect fill="#FEFECE" height="2" style="stroke: #A80036; stroke-width: 1.5;" width="4" x="580.5" y="536"/><text fill="#000000" font-family="sans-serif" font-size="14" lengthAdjust="spacingAndGlyphs" textLength="34" x="543.5" y="559.5332">views</text><!--MD5=[35dc5981f426b321e66b521db4fdbff3]
entity tools--><rect fill="#FEFECE" filter="url(#fz9ze9iqzu93u)" height="100.4375" style="stroke: #A80036; stroke-width: 1.5;" width="172" x="38" y="173"/><rect fill="#FEFECE" height="10" style="stroke: #A80036; stroke-width: 1.5;" width="15" x="190" y="178"/><rect fill="#FEFECE" height="2" style="stroke: #A80036; stroke-width: 1.5;" width="4" x="188" y="180"/><rect fill="#FEFECE" height="2" style="stroke: #A80036; stroke-width: 1.5;" width="4" x="188" y="184"/><text fill="#000000" font-family="sans-serif" font-size="14" lengthAdjust="spacingAndGlyphs" textLength="38" x="53" y="207.5332">SSMS</text><text fill="#000000" font-family="sans-serif" font-size="14" lengthAdjust="spacingAndGlyphs" textLength="114" x="53" y="225.1426">Azure Data Studio</text><text fill="#000000" font-family="sans-serif" font-size="14" lengthAdjust="spacingAndGlyphs" textLength="132" x="53" y="242.752">Visual Studio - SSDT</text><text fill="#000000" font-family="sans-serif" font-size="14" lengthAdjust="spacingAndGlyphs" textLength="67" x="53" y="260.3613">other tools</text><!--MD5=[af0130ed37a350d20981e23329ca1691]
link repo_syn to dwh_sys--><path d="M1109.52,266 C1181.73,266 1315.13,266 1412.56,266 " fill="none" id="repo_syn-&gt;dwh_sys" style="stroke: #A80036; stroke-width: 1.0;"/><polygon fill="#A80036" points="1417.75,266,1408.75,262,1412.75,266,1408.75,270,1417.75,266" style="stroke: #A80036; stroke-width: 1.0;"/><text fill="#000000" font-family="sans-serif" font-size="13" lengthAdjust="spacingAndGlyphs" textLength="35" x="1279.5" y="262.4951">link to</text><!--MD5=[c40414f2f3e8b37e1da06468326a8698]
link repo_object to dwh_ep--><path d="M1123.63,183 C1206.96,183 1350.98,183 1443.56,183 " fill="none" id="repo_object-dwh_ep" style="stroke: #A80036; stroke-width: 1.0;"/><polygon fill="#A80036" points="1448.76,183,1439.76,179,1443.76,183,1439.76,187,1448.76,183" style="stroke: #A80036; stroke-width: 1.0;"/><polygon fill="#A80036" points="1118.39,183,1127.39,187,1123.39,183,1127.39,179,1118.39,183" style="stroke: #A80036; stroke-width: 1.0;"/><text fill="#000000" font-family="sans-serif" font-size="13" lengthAdjust="spacingAndGlyphs" textLength="144" x="1225" y="179.4951">correspond to each other</text><!--MD5=[e42488ec9f7145c7b1f5b0e4693c7bcc]
link scripts to repo_db--><path d="M653.8815,324.1797 C656.8447,324.1857 659.8614,324.1919 662.928,324.1981 C669.0611,324.2106 675.3937,324.2235 681.8973,324.2368 C694.9045,324.2633 708.5957,324.2911 722.7428,324.3199 C751.037,324.3775 781.155,324.4388 811.2725,324.5 C841.39,324.5613 871.507,324.6225 899.7994,324.6801 C913.9455,324.7089 927.6355,324.7367 940.6413,324.7632 C947.1442,324.7765 953.4761,324.7894 959.6084,324.8019 C962.6745,324.8081 965.6908,324.8143 968.6536,324.8203 C969.3943,324.8218 970.1317,324.8233 970.8656,324.8248 C971.2326,324.8256 971.5988,324.8263 971.964,324.8271 " fill="none" id="scripts-&gt;repo_db" style="stroke: #A80036; stroke-width: 1.0;"/><polygon fill="#A80036" points="971.964,324.8271,962.9722,320.8087,966.964,324.8169,962.9559,328.8087,971.964,324.8271" style="stroke: #A80036; stroke-width: 1.0;"/><text fill="#000000" font-family="sans-serif" font-size="13" lengthAdjust="spacingAndGlyphs" textLength="136" x="753" y="321.4951">are generated based on</text><!--MD5=[957151fe690e6f8d1c866c4ed57f79b2]
link scripts to dwh_db--><path d="M654.2482,334.3762 C655.3805,334.51 656.5219,334.6449 657.6723,334.7809 C676.0782,336.9563 696.7842,339.4036 719.3302,342.0683 C809.5141,352.7272 929.1381,366.8656 1048.7613,381.0037 C1168.3844,395.1419 1288.0066,409.2797 1378.1867,419.9373 C1381.0048,420.2704 1383.7942,420.6 1386.554,420.9262 C1387.9338,421.0893 1389.3063,421.2515 1390.6712,421.4128 C1391.3537,421.4934 1392.0342,421.5739 1392.7129,421.6541 " fill="none" id="scripts-&gt;dwh_db" style="stroke: #A80036; stroke-width: 1.0;"/><polygon fill="#A80036" points="1392.7129,421.6541,1384.2446,416.6254,1387.7475,421.0673,1383.3057,424.5701,1392.7129,421.6541" style="stroke: #A80036; stroke-width: 1.0;"/><text fill="#000000" font-family="sans-serif" font-size="13" lengthAdjust="spacingAndGlyphs" textLength="272" x="921" y="362.4951">can be executed to create or change objects in</text><!--MD5=[ed19bd943687aaf6e81a3897bf080bbb]
reverse link procedures to dwh_logging--><path d="M627.09,467.79 C739.5,470.19 987.71,471.11 1194,441 C1277.52,428.81 1295.55,412.05 1378,394 C1414.27,386.06 1455.72,378.57 1486.32,373.34 " fill="none" id="procedures&lt;-dwh_logging" style="stroke: #A80036; stroke-width: 1.0; stroke-dasharray: 7.0,7.0;"/><polygon fill="#A80036" points="621.84,467.68,630.7582,471.8592,626.839,467.78,630.9182,463.8608,621.84,467.68" style="stroke: #A80036; stroke-width: 1.0;"/><text fill="#000000" font-family="sans-serif" font-size="13" lengthAdjust="spacingAndGlyphs" textLength="89" x="1012.5" y="437.4951">can be used by</text><!--MD5=[74b64928f23b1e833b4efcd42de07e38]
link tools to ms_sql--><path d="M210.09,208.1 C324.105,188.14 533.1825,151.535 714.9425,119.7125 C760.3825,111.7569 804.1152,104.1002 844.2283,97.0771 C864.2848,93.5656 883.4365,90.2126 901.4443,87.0598 C910.4482,85.4834 919.1661,83.957 927.5681,82.486 C928.6184,82.3021 929.6637,82.1191 930.7041,81.937 " fill="none" id="tools-&gt;ms_sql" style="stroke: #A80036; stroke-width: 1.0;"/><polygon fill="#A80036" points="930.7041,81.937,921.1491,79.549,925.779,82.7993,922.5287,87.4292,930.7041,81.937" style="stroke: #A80036; stroke-width: 1.0;"/><text fill="#000000" font-family="sans-serif" font-size="13" lengthAdjust="spacingAndGlyphs" textLength="311" x="410" y="115.4951">configure, manage, and administer components within</text><!--MD5=[601d3f79272b28983e76d99d8aebbbea]
reverse link tools to scripts--><path d="M215.21,243.73 C278.5,258.275 364.08,277.9425 434.6887,294.1688 C443.5148,296.197 452.107,298.1715 460.3925,300.0756 C464.5352,301.0276 468.6013,301.962 472.5816,302.8766 C474.5717,303.334 476.5404,303.7864 478.4865,304.2336 " fill="none" id="tools&lt;-scripts" style="stroke: #A80036; stroke-width: 1.0;"/><polygon fill="#A80036" points="210,242.53,217.865,248.458,214.871,243.6585,219.6706,240.6645,210,242.53" style="stroke: #A80036; stroke-width: 1.0;"/><text fill="#000000" font-family="sans-serif" font-size="13" lengthAdjust="spacingAndGlyphs" textLength="135" x="243" y="247.4951">can be executed, using</text><!--MD5=[3de971446d69afa41382a954c8d26309]
@startuml
left to right direction
skinparam componentStyle uml2

package "MS SQL" as ms_sql {
  database "Repository DB" as repo_db {
    [Synonyms] as repo_syn
    [RepoObjects] as repo_object
  }
  database  "DWH DB" as dwh_db {
    [System views and procedures] as dwh_sys
    [extended properties] as dwh_ep
    frame "optional" {
      [Logging] as dwh_logging
    }
  }
}
package "generated SQL Scripts" as scripts {
  [tables]
  [procedures]
  [views]
}

package "GUI tools" as gui_tools {
  component tools [
    SSMS
    Azure Data Studio
    Visual Studio - SSDT
    other tools
  ]
}

repo_syn - -> dwh_sys : link to
repo_object <- -> dwh_ep    : correspond to each other
scripts - -> repo_db        : are generated based on
scripts - -> dwh_db         : can be executed to create or change objects in
procedures <.. dwh_logging : can be used by
tools - -> ms_sql           : configure, manage, and administer components within
tools <- - scripts          : can be executed, using
@enduml

PlantUML version 1.2019.12(Sun Nov 03 11:24:54 CET 2019)
(APACHE source distribution)
Java Runtime: Java(TM) SE Runtime Environment
JVM: Java HotSpot(TM) 64-Bit Server VM
Java Version: 1.8.0_281-b09
Operating System: Windows 10
Default Encoding: Cp1252
Language: de
Country: DE
--></g></svg>